<svg width="1180" height="1109" viewBox="0 0 1180 1109" fill="none" xmlns="http://www.w3.org/2000/svg">
<rect width="1180" height="1109" fill="#B8E0D2"/>
<path d="M1060.5 342.5C1060.5 549.331 902.331 943.5 695.5 943.5C488.669 943.5 169 815.831 169 609C169 402.169 402.669 159 609.5 159C816.331 159 1060.5 135.669 1060.5 342.5Z" fill="#ECDBE7"/>
<path d="M990 361.04C990 535.042 856.935 866.648 682.933 866.648C508.931 866.648 240 759.243 240 585.24C240 411.238 436.581 206.665 610.583 206.665C784.586 206.665 990 187.038 990 361.04Z" fill="#EBEAD9"/>
<path d="M952 376.368C952 527.17 836.677 814.562 685.876 814.562C535.074 814.562 302 721.477 302 570.675C302 419.873 472.37 242.576 623.172 242.576C773.974 242.576 952 225.566 952 376.368Z" fill="#B8E0D2"/>
<path d="M816.08 556.746C814.164 555.838 812.349 556.242 810.634 555.637C805.793 554.023 801.961 551.198 800.347 546.054C799.843 544.44 799.843 542.725 800.65 541.111C801.355 539.699 801.557 538.186 802.465 536.774C805.188 532.941 810.331 530.722 815.072 531.63C817.593 532.134 819.912 532.739 821.829 534.353C822.736 535.059 823.341 534.857 823.341 533.647C823.341 531.125 824.148 529.007 825.359 526.889C826.771 524.468 828.687 522.652 831.107 521.644C833.326 520.736 835.747 520.837 838.066 521.644C839.982 522.35 841.394 523.661 842.504 525.376C843.31 526.586 844.622 527.595 845.328 528.906C846.74 531.327 847.445 533.95 847.244 536.774C847.244 537.177 847.143 537.581 847.445 538.085C849.059 538.085 850.673 537.177 852.085 536.673C856.22 535.059 859.951 536.27 863.683 537.783C864.893 538.287 866.103 539.094 867.011 540.103C870.743 543.936 870.743 547.567 868.322 551.904C866.204 555.838 862.574 557.351 858.741 558.663C857.127 559.167 855.615 559.873 854.102 560.377C853.9 561.487 854.808 561.689 855.312 562.092C858.64 564.816 860.859 568.245 862.473 572.179C863.683 575.003 863.38 577.828 862.069 580.551C861.262 582.064 859.85 583.073 858.64 583.88C855.816 585.897 852.791 587.511 849.059 587.209C847.445 587.007 846.034 586.603 844.823 585.696C841.092 583.073 837.965 579.946 836.352 575.306C835.646 576.012 835.04 576.617 834.435 577.323C830.905 581.257 826.266 582.67 821.224 583.376C820.013 583.577 818.702 583.476 817.391 583.476C815.273 583.476 813.559 582.77 812.147 581.358C810.533 579.845 809.626 577.828 809.424 575.609C808.819 569.96 809.928 564.715 813.458 559.974C814.567 558.864 815.374 557.957 816.08 556.746ZM814.164 571.675C813.861 574.096 814.567 576.315 816.282 578.231C816.887 578.937 817.492 579.341 818.501 579.442C821.526 579.845 824.451 579.24 827.275 578.332C829.191 577.626 831.006 576.315 831.914 574.398C832.923 572.482 834.133 570.565 834.133 568.144C834.133 566.732 835.847 565.522 837.36 565.522C838.873 565.522 839.075 566.833 839.276 567.842C839.781 570.263 840.688 572.482 841.495 574.701C842.604 577.727 845.025 579.744 847.546 581.661C850.269 583.88 855.312 583.275 857.43 580.45C859.346 577.929 859.144 575.205 857.934 572.482C857.127 570.666 856.018 569.052 854.808 567.64C852.992 565.522 851.076 563.504 848.555 562.193C847.244 561.487 847.042 559.671 848.353 558.864C849.261 558.259 850.269 557.755 851.379 557.452C854.001 556.847 856.623 556.141 859.044 554.83C861.867 553.317 864.187 551.299 865.196 548.071C865.7 546.457 865.599 544.944 864.49 543.734C863.078 542.221 861.666 540.607 859.548 540.002C857.632 539.397 855.615 538.489 853.698 539.598C851.48 540.91 849.16 542.322 847.244 544.137C845.933 545.348 844.823 545.55 843.21 545.449C841.899 545.348 841.596 544.743 841.596 543.532C841.596 541.817 841.999 540.204 842.302 538.489C842.705 536.27 842.806 533.95 841.798 531.831C840.487 529.108 838.57 526.99 836.15 525.073C835.141 524.367 834.133 524.165 833.225 524.771C831.107 526.082 829.292 527.595 828.485 530.016C827.678 532.437 827.376 534.858 827.477 537.379C827.477 538.186 827.577 538.892 828.182 539.598C828.989 540.405 829.191 541.414 828.586 542.423C828.183 543.129 828.384 544.037 828.283 544.844C828.283 545.348 828.485 546.054 827.678 546.155C827.073 546.256 826.569 546.054 826.165 545.65C825.762 545.247 825.56 544.743 825.359 544.137C825.157 543.633 824.955 543.028 824.552 542.624C821.526 539.094 817.694 536.673 813.559 534.757C813.256 534.656 812.954 534.656 812.651 534.656C808.113 535.16 804.684 538.892 804.583 543.129C804.482 545.348 804.986 547.063 807.104 548.475C808.919 549.786 810.634 551.501 812.853 551.904C815.979 552.51 819.207 552.913 822.333 552.207C823.14 552.005 824.047 551.804 824.35 552.812C824.653 553.72 824.653 554.729 823.644 555.334C822.938 555.737 822.333 556.242 821.627 556.645C820.013 557.755 818.501 558.763 817.694 560.68C817.29 561.588 816.786 562.395 816.282 563.202C815.273 566.026 813.861 568.548 814.164 571.675Z" fill="#2F2D2B" fill-opacity="0.7"/>
<path d="M814.165 571.675C813.762 568.548 815.174 566.026 816.586 563.606C817.09 562.799 817.594 561.992 817.998 561.084C818.804 559.167 820.317 558.159 821.931 557.049C822.637 556.646 823.242 556.141 823.948 555.738C824.957 555.132 824.956 554.124 824.654 553.216C824.251 552.207 823.444 552.409 822.637 552.611C819.41 553.216 816.182 552.913 813.157 552.308C811.039 551.905 809.324 550.19 807.408 548.879C805.391 547.466 804.887 545.752 804.887 543.532C804.988 539.296 808.417 535.564 812.955 535.059C813.258 535.059 813.661 534.959 813.863 535.16C817.998 537.077 821.83 539.498 824.856 543.028C825.259 543.432 825.461 544.037 825.662 544.541C825.864 545.046 826.066 545.55 826.469 546.054C826.873 546.559 827.377 546.76 827.982 546.559C828.789 546.357 828.587 545.752 828.587 545.247C828.587 544.44 828.385 543.633 828.89 542.826C829.495 541.717 829.293 540.809 828.486 540.002C827.78 539.397 827.78 538.59 827.78 537.783C827.68 535.261 828.083 532.84 828.789 530.419C829.596 527.999 831.512 526.486 833.529 525.174C834.437 524.569 835.445 524.771 836.454 525.477C838.773 527.293 840.791 529.512 842.102 532.235C843.11 534.353 843.11 536.573 842.606 538.893C842.303 540.506 841.9 542.221 841.9 543.936C841.9 545.046 842.202 545.752 843.513 545.852C845.127 545.953 846.236 545.752 847.548 544.541C849.464 542.726 851.683 541.313 854.002 540.002C855.918 538.893 857.936 539.699 859.852 540.406C861.869 541.112 863.382 542.625 864.794 544.138C865.903 545.348 866.004 546.861 865.5 548.475C864.39 551.602 862.171 553.72 859.347 555.233C856.927 556.545 854.305 557.251 851.683 557.856C850.573 558.159 849.565 558.663 848.657 559.268C847.447 560.075 847.548 561.992 848.859 562.597C851.38 563.908 853.296 565.925 855.112 568.044C856.322 569.456 857.431 571.171 858.238 572.885C859.448 575.609 859.65 578.232 857.734 580.854C855.616 583.678 850.674 584.284 847.85 582.065C845.43 580.148 842.908 578.131 841.799 575.105C840.992 572.885 840.085 570.666 839.58 568.245C839.379 567.136 839.278 565.925 837.664 565.925C836.151 565.925 834.437 567.136 834.437 568.548C834.437 570.969 833.226 572.885 832.218 574.802C831.31 576.618 829.394 578.03 827.579 578.736C824.755 579.745 821.83 580.249 818.804 579.845C817.796 579.745 817.191 579.341 816.586 578.635C814.669 576.315 813.863 574.096 814.165 571.675Z" fill="#2F2D2B" fill-opacity="0.7"/>
<path d="M436.76 529.12C442.68 529.12 447.453 529.947 451.08 531.6C451.507 531.813 451.773 532.027 451.88 532.24C451.987 532.4 452.093 532.8 452.2 533.44L453.16 544C453.16 544.16 453.027 544.267 452.76 544.32C452.493 544.373 452.307 544.293 452.2 544.08C450.813 539.707 448.733 536.373 445.96 534.08C443.24 531.787 439.853 530.64 435.8 530.64C431.907 530.64 428.413 531.627 425.32 533.6C422.28 535.52 419.907 538.32 418.2 542C416.493 545.627 415.64 549.867 415.64 554.72C415.64 559.52 416.547 563.813 418.36 567.6C420.173 571.333 422.653 574.24 425.8 576.32C428.947 578.4 432.493 579.44 436.44 579.44C440.333 579.44 443.56 578.427 446.12 576.4C448.733 574.32 451.027 571.04 453 566.56C453.053 566.4 453.213 566.347 453.48 566.4C453.747 566.453 453.88 566.533 453.88 566.64L452.84 576.24C452.787 576.88 452.68 577.28 452.52 577.44C452.413 577.6 452.147 577.787 451.72 578C446.92 579.973 441.827 580.96 436.44 580.96C430.733 580.96 425.64 579.893 421.16 577.76C416.68 575.573 413.187 572.533 410.68 568.64C408.173 564.693 406.92 560.187 406.92 555.12C406.92 550.107 408.227 545.627 410.84 541.68C413.453 537.733 417.027 534.667 421.56 532.48C426.093 530.24 431.16 529.12 436.76 529.12ZM476.409 581.04C473.209 581.04 470.383 580.293 467.929 578.8C465.476 577.253 463.583 575.2 462.249 572.64C460.916 570.027 460.249 567.2 460.249 564.16C460.249 560.693 461.103 557.76 462.809 555.36C464.569 552.907 466.783 551.093 469.449 549.92C472.169 548.693 474.943 548.08 477.769 548.08C481.023 548.08 483.849 548.853 486.249 550.4C488.703 551.947 490.569 554 491.849 556.56C493.129 559.067 493.769 561.76 493.769 564.64C493.769 567.84 492.969 570.693 491.369 573.2C489.823 575.707 487.716 577.653 485.049 579.04C482.383 580.373 479.503 581.04 476.409 581.04ZM478.809 579.44C481.156 579.44 482.943 578.4 484.169 576.32C485.449 574.24 486.089 571.2 486.089 567.2C486.089 563.627 485.583 560.507 484.569 557.84C483.609 555.173 482.276 553.147 480.569 551.76C478.916 550.373 477.103 549.68 475.129 549.68C472.729 549.68 470.916 550.667 469.689 552.64C468.463 554.613 467.849 557.52 467.849 561.36C467.849 564.827 468.303 567.947 469.209 570.72C470.169 573.44 471.476 575.573 473.129 577.12C474.836 578.667 476.729 579.44 478.809 579.44ZM499.476 580C499.316 580 499.236 579.84 499.236 579.52C499.236 579.2 499.316 579.04 499.476 579.04C501.236 579.04 502.436 578.667 503.076 577.92C503.716 577.12 504.036 575.653 504.036 573.52V532.64C504.036 530.773 503.849 529.44 503.476 528.64C503.156 527.787 502.542 527.36 501.636 527.36C500.836 527.36 499.769 527.68 498.436 528.32H498.356C498.142 528.32 497.982 528.187 497.876 527.92C497.769 527.653 497.769 527.467 497.876 527.36L509.156 522.08L509.476 522C509.689 522 509.929 522.107 510.196 522.32C510.516 522.533 510.676 522.72 510.676 522.88V573.52C510.676 575.707 510.969 577.173 511.556 577.92C512.142 578.667 513.342 579.04 515.156 579.04C515.316 579.04 515.396 579.2 515.396 579.52C515.396 579.84 515.316 580 515.156 580C513.876 580 512.836 579.973 512.036 579.92L507.316 579.84L502.676 579.92C501.876 579.973 500.809 580 499.476 580ZM520.648 580C520.488 580 520.408 579.84 520.408 579.52C520.408 579.2 520.488 579.04 520.648 579.04C522.408 579.04 523.608 578.667 524.248 577.92C524.888 577.12 525.208 575.653 525.208 573.52V532.64C525.208 530.773 525.021 529.44 524.648 528.64C524.328 527.787 523.714 527.36 522.808 527.36C522.008 527.36 520.941 527.68 519.608 528.32H519.528C519.314 528.32 519.154 528.187 519.048 527.92C518.941 527.653 518.941 527.467 519.048 527.36L530.328 522.08L530.648 522C530.861 522 531.101 522.107 531.368 522.32C531.688 522.533 531.848 522.72 531.848 522.88V573.52C531.848 575.707 532.141 577.173 532.728 577.92C533.314 578.667 534.514 579.04 536.328 579.04C536.488 579.04 536.568 579.2 536.568 579.52C536.568 579.84 536.488 580 536.328 580C535.048 580 534.008 579.973 533.208 579.92L528.488 579.84L523.848 579.92C523.048 579.973 521.981 580 520.648 580ZM569.179 574.96C569.286 574.96 569.393 575.067 569.499 575.28C569.659 575.493 569.686 575.653 569.579 575.76C567.606 577.573 565.633 578.907 563.659 579.76C561.686 580.56 559.553 580.96 557.259 580.96C554.006 580.96 551.179 580.24 548.779 578.8C546.433 577.36 544.619 575.467 543.339 573.12C542.113 570.773 541.499 568.24 541.499 565.52C541.499 562.373 542.273 559.493 543.819 556.88C545.366 554.267 547.473 552.213 550.139 550.72C552.859 549.173 555.873 548.4 559.179 548.4C562.379 548.4 564.859 549.173 566.619 550.72C568.379 552.267 569.259 554.56 569.259 557.6C569.259 559.147 568.939 559.92 568.299 559.92L548.779 560C548.726 560.48 548.699 561.2 548.699 562.16C548.699 566.853 549.766 570.587 551.899 573.36C554.086 576.08 557.179 577.44 561.179 577.44C562.673 577.44 563.926 577.28 564.939 576.96C565.953 576.587 567.313 575.947 569.019 575.04L569.179 574.96ZM556.299 550C554.326 550 552.699 550.773 551.419 552.32C550.193 553.813 549.366 555.893 548.939 558.56L561.739 558.32C561.633 552.773 559.819 550 556.299 550ZM590.234 580.96C586.767 580.96 583.807 580.213 581.354 578.72C578.954 577.173 577.167 575.2 575.994 572.8C574.82 570.347 574.234 567.787 574.234 565.12C574.234 561.76 575.14 558.827 576.954 556.32C578.767 553.76 581.087 551.813 583.914 550.48C586.794 549.093 589.7 548.4 592.634 548.4C595.14 548.4 597.407 548.907 599.434 549.92C601.46 550.933 602.474 552.293 602.474 554C602.474 554.907 602.127 555.707 601.434 556.4C600.74 557.04 599.78 557.36 598.554 557.36C596.527 557.36 595.06 556.16 594.154 553.76C593.62 552.427 593.06 551.493 592.474 550.96C591.887 550.373 590.954 550.08 589.674 550.08C587.167 550.08 585.167 551.227 583.674 553.52C582.234 555.76 581.514 558.773 581.514 562.56C581.514 566.987 582.527 570.587 584.554 573.36C586.634 576.08 589.86 577.44 594.234 577.44C595.727 577.44 597.06 577.253 598.234 576.88C599.407 576.507 600.687 575.92 602.074 575.12H602.154C602.314 575.12 602.447 575.2 602.554 575.36C602.714 575.52 602.74 575.653 602.634 575.76C600.66 577.52 598.714 578.827 596.794 579.68C594.874 580.533 592.687 580.96 590.234 580.96ZM630.788 574.88C630.948 574.88 631.081 574.987 631.188 575.2C631.348 575.413 631.348 575.573 631.188 575.68C629.214 577.547 627.348 578.907 625.588 579.76C623.828 580.56 621.961 580.96 619.988 580.96C617.694 580.96 615.748 580.427 614.148 579.36C612.601 578.24 611.828 576.4 611.828 573.84V555.76C611.828 554 611.534 552.827 610.948 552.24C610.414 551.653 609.348 551.36 607.748 551.36C607.694 551.36 607.614 551.307 607.508 551.2C607.454 551.04 607.428 550.88 607.428 550.72C607.428 550.56 607.454 550.427 607.508 550.32C607.614 550.16 607.694 550.08 607.748 550.08C612.761 549.867 615.908 547.707 617.188 543.6C617.294 543.387 617.508 543.28 617.828 543.28C618.201 543.28 618.388 543.387 618.388 543.6V549.92C620.894 549.867 624.441 549.6 629.028 549.12C629.134 549.12 629.241 549.333 629.348 549.76C629.508 550.133 629.588 550.56 629.588 551.04C629.588 551.52 629.481 552 629.268 552.48C629.108 552.96 628.921 553.173 628.707 553.12C625.721 552.427 622.281 552 618.388 551.84V571.2C618.388 573.28 618.894 574.827 619.908 575.84C620.974 576.8 622.441 577.28 624.308 577.28C626.548 577.28 628.654 576.507 630.628 574.96L630.788 574.88ZM643.021 539.92C641.634 539.92 640.541 539.547 639.741 538.8C638.994 538.053 638.621 536.987 638.621 535.6C638.621 534.267 638.994 533.253 639.741 532.56C640.541 531.813 641.634 531.44 643.021 531.44C644.354 531.44 645.394 531.813 646.141 532.56C646.887 533.253 647.261 534.267 647.261 535.6C647.261 536.987 646.887 538.053 646.141 538.8C645.447 539.547 644.407 539.92 643.021 539.92ZM635.661 580C635.501 580 635.421 579.84 635.421 579.52C635.421 579.2 635.501 579.04 635.661 579.04C637.474 579.04 638.674 578.667 639.261 577.92C639.847 577.173 640.141 575.707 640.141 573.52V558.96C640.141 557.147 639.954 555.84 639.581 555.04C639.207 554.187 638.567 553.76 637.661 553.76C636.861 553.76 635.821 554.08 634.541 554.72H634.461C634.247 554.72 634.087 554.587 633.981 554.32C633.874 554.053 633.901 553.867 634.061 553.76L645.581 548.4L645.821 548.32C646.034 548.32 646.247 548.453 646.461 548.72C646.727 548.933 646.861 549.12 646.861 549.28V550.96C646.754 553.2 646.701 555.84 646.701 558.88V573.52C646.701 575.707 646.994 577.173 647.581 577.92C648.221 578.667 649.447 579.04 651.261 579.04C651.421 579.04 651.501 579.2 651.501 579.52C651.501 579.84 651.421 580 651.261 580C649.927 580 648.861 579.973 648.061 579.92L643.421 579.84L638.781 579.92C638.034 579.973 636.994 580 635.661 580ZM672.191 581.04C668.991 581.04 666.164 580.293 663.711 578.8C661.257 577.253 659.364 575.2 658.031 572.64C656.697 570.027 656.031 567.2 656.031 564.16C656.031 560.693 656.884 557.76 658.591 555.36C660.351 552.907 662.564 551.093 665.231 549.92C667.951 548.693 670.724 548.08 673.551 548.08C676.804 548.08 679.631 548.853 682.031 550.4C684.484 551.947 686.351 554 687.631 556.56C688.911 559.067 689.551 561.76 689.551 564.64C689.551 567.84 688.751 570.693 687.151 573.2C685.604 575.707 683.497 577.653 680.831 579.04C678.164 580.373 675.284 581.04 672.191 581.04ZM674.591 579.44C676.937 579.44 678.724 578.4 679.951 576.32C681.231 574.24 681.871 571.2 681.871 567.2C681.871 563.627 681.364 560.507 680.351 557.84C679.391 555.173 678.057 553.147 676.351 551.76C674.697 550.373 672.884 549.68 670.911 549.68C668.511 549.68 666.697 550.667 665.471 552.64C664.244 554.613 663.631 557.52 663.631 561.36C663.631 564.827 664.084 567.947 664.991 570.72C665.951 573.44 667.257 575.573 668.911 577.12C670.617 578.667 672.511 579.44 674.591 579.44ZM732.617 579.04C732.777 579.04 732.857 579.2 732.857 579.52C732.857 579.84 732.777 580 732.617 580C731.284 580 730.244 579.973 729.497 579.92L724.857 579.84L720.297 579.92C719.497 579.973 718.43 580 717.097 580C716.937 580 716.857 579.84 716.857 579.52C716.857 579.2 716.937 579.04 717.097 579.04C718.91 579.04 720.11 578.667 720.697 577.92C721.284 577.173 721.577 575.707 721.577 573.52V561.52C721.577 558.533 721.017 556.347 719.897 554.96C718.83 553.52 717.124 552.8 714.777 552.8C713.39 552.8 711.977 553.12 710.537 553.76C709.097 554.4 707.79 555.253 706.617 556.32V573.52C706.617 575.707 706.91 577.173 707.497 577.92C708.084 578.667 709.284 579.04 711.097 579.04C711.257 579.04 711.337 579.2 711.337 579.52C711.337 579.84 711.257 580 711.097 580C709.764 580 708.724 579.973 707.977 579.92L703.337 579.84L698.697 579.92C697.95 579.973 696.91 580 695.577 580C695.417 580 695.337 579.84 695.337 579.52C695.337 579.2 695.417 579.04 695.577 579.04C697.39 579.04 698.59 578.667 699.177 577.92C699.764 577.173 700.057 575.707 700.057 573.52V558.24C700.057 556.533 699.844 555.28 699.417 554.48C699.044 553.68 698.404 553.28 697.497 553.28C696.697 553.28 695.364 553.68 693.497 554.48H693.417C693.204 554.48 693.044 554.347 692.937 554.08C692.83 553.813 692.857 553.653 693.017 553.6L703.497 548.48C703.817 548.373 704.004 548.32 704.057 548.32C704.59 548.32 705.124 548.933 705.657 550.16C706.244 551.333 706.564 552.88 706.617 554.8C710.35 550.373 714.404 548.16 718.777 548.16C721.71 548.16 724.004 549.067 725.657 550.88C727.31 552.64 728.137 555.04 728.137 558.08V573.52C728.137 575.707 728.43 577.173 729.017 577.92C729.604 578.667 730.804 579.04 732.617 579.04ZM743.132 553.28C743.132 554.933 743.692 556.32 744.812 557.44C745.985 558.56 747.665 559.733 749.852 560.96C751.772 562.027 753.239 562.907 754.252 563.6C755.319 564.293 756.225 565.227 756.972 566.4C757.772 567.573 758.172 568.987 758.172 570.64C758.172 572.453 757.719 574.133 756.812 575.68C755.905 577.227 754.545 578.48 752.732 579.44C750.972 580.4 748.865 580.88 746.412 580.88C743.479 580.88 740.785 580.133 738.332 578.64C738.012 578.32 737.852 578 737.852 577.68L737.692 570.32C737.692 570.16 737.825 570.08 738.092 570.08C738.412 570.027 738.599 570.053 738.652 570.16C739.559 572.827 740.919 575.013 742.732 576.72C744.599 578.427 746.572 579.28 748.652 579.28C749.985 579.28 751.025 578.933 751.772 578.24C752.519 577.547 752.892 576.507 752.892 575.12C752.892 573.093 752.305 571.493 751.132 570.32C749.959 569.093 748.252 567.893 746.012 566.72C744.199 565.76 742.785 564.96 741.772 564.32C740.759 563.627 739.879 562.72 739.132 561.6C738.439 560.427 738.092 558.987 738.092 557.28C738.092 554.24 739.185 551.973 741.372 550.48C743.612 548.987 746.305 548.24 749.452 548.24C751.532 548.24 753.665 548.64 755.852 549.44C756.332 549.653 756.572 549.947 756.572 550.32C756.572 551.547 756.545 552.507 756.492 553.2L756.412 557.04C756.412 557.2 756.252 557.28 755.932 557.28C755.612 557.28 755.452 557.2 755.452 557.04C755.452 555.973 755.025 554.88 754.172 553.76C753.319 552.587 752.225 551.627 750.892 550.88C749.559 550.133 748.199 549.76 746.812 549.76C744.359 549.76 743.132 550.933 743.132 553.28ZM769.365 580.88C768.032 580.88 766.965 580.48 766.165 579.68C765.365 578.88 764.965 577.813 764.965 576.48C764.965 575.2 765.365 574.187 766.165 573.44C766.965 572.693 768.032 572.32 769.365 572.32C770.752 572.32 771.818 572.693 772.565 573.44C773.312 574.187 773.685 575.2 773.685 576.48C773.685 577.867 773.312 578.96 772.565 579.76C771.818 580.507 770.752 580.88 769.365 580.88Z" fill="#535050"/>
</svg>
