<svg width="1180" height="1109" viewBox="0 0 1180 1109" fill="none" xmlns="http://www.w3.org/2000/svg">
<g clip-path="url(#clip0_81_275)">
<rect width="1180" height="1109" fill="#FFB3C6"/>
<path d="M620.5 1010C620.5 1175.13 472.671 1224 304.5 1224C136.329 1224 -336 1059.63 -336 894.5C-336 729.367 220.829 359.5 389 359.5C557.171 359.5 620.5 844.867 620.5 1010Z" fill="#C2C8E9"/>
<path d="M517 1026.5C517 1191.63 380.671 1325.5 212.5 1325.5C44.3293 1325.5 -428 1161.13 -428 996C-428 830.867 128.829 461 297 461C465.171 461 517 861.367 517 1026.5Z" fill="#E9DEC2"/>
<path d="M414 1119.5C414 1284.63 277.671 1418.5 109.5 1418.5C-58.6707 1418.5 -531 1254.13 -531 1089C-531 923.867 25.8293 554 194 554C362.171 554 414 954.367 414 1119.5Z" fill="#FFB3C6"/>
<path d="M302.64 461.96C299.173 461.96 296.213 461.213 293.76 459.72C291.36 458.173 289.573 456.2 288.4 453.8C287.227 451.347 286.64 448.787 286.64 446.12C286.64 442.76 287.547 439.827 289.36 437.32C291.173 434.76 293.493 432.813 296.32 431.48C299.2 430.093 302.107 429.4 305.04 429.4C307.547 429.4 309.813 429.907 311.84 430.92C313.867 431.933 314.88 433.293 314.88 435C314.88 435.907 314.533 436.707 313.84 437.4C313.147 438.04 312.187 438.36 310.96 438.36C308.933 438.36 307.467 437.16 306.56 434.76C306.027 433.427 305.467 432.493 304.88 431.96C304.293 431.373 303.36 431.08 302.08 431.08C299.573 431.08 297.573 432.227 296.08 434.52C294.64 436.76 293.92 439.773 293.92 443.56C293.92 447.987 294.933 451.587 296.96 454.36C299.04 457.08 302.267 458.44 306.64 458.44C308.133 458.44 309.467 458.253 310.64 457.88C311.813 457.507 313.093 456.92 314.48 456.12H314.56C314.72 456.12 314.853 456.2 314.96 456.36C315.12 456.52 315.147 456.653 315.04 456.76C313.067 458.52 311.12 459.827 309.2 460.68C307.28 461.533 305.093 461.96 302.64 461.96ZM338.794 431.8C339.007 431.427 338.874 431.24 338.394 431.24C333.434 431.24 329.567 431.88 326.794 433.16C324.074 434.387 322.234 436.44 321.274 439.32C321.274 439.373 321.167 439.4 320.954 439.4C320.527 439.4 320.34 439.293 320.394 439.08L323.594 427.24C323.594 427.187 323.7 427.16 323.914 427.16C324.34 427.16 324.527 427.267 324.474 427.48C324.367 427.907 324.314 428.2 324.314 428.36C324.314 429.053 324.634 429.533 325.274 429.8C325.914 430.013 326.954 430.12 328.394 430.12H346.314C346.527 430.12 346.714 430.227 346.874 430.44C347.034 430.653 347.06 430.867 346.954 431.08L328.474 459.08C328.314 459.453 328.447 459.64 328.874 459.64C332.874 459.64 336.047 459.373 338.394 458.84C340.794 458.307 342.634 457.427 343.914 456.2C345.194 454.92 346.127 453.16 346.714 450.92C346.767 450.76 346.927 450.68 347.194 450.68C347.514 450.68 347.674 450.76 347.674 450.92L347.514 460.12C347.514 460.333 347.434 460.547 347.274 460.76C347.114 460.92 346.927 461 346.714 461H321.034C320.82 461 320.634 460.893 320.474 460.68C320.367 460.467 320.367 460.253 320.474 460.04L338.794 431.8ZM402.206 456.68C402.419 456.68 402.552 456.813 402.606 457.08C402.659 457.293 402.579 457.453 402.366 457.56L394.126 461.48C393.912 461.587 393.672 461.64 393.406 461.64C392.606 461.64 391.832 461.187 391.086 460.28C390.392 459.32 389.939 458.067 389.726 456.52L386.046 459.08C384.766 459.987 383.592 460.627 382.526 461C381.512 461.373 380.366 461.56 379.086 461.56C376.899 461.56 375.219 461.053 374.046 460.04C372.926 458.973 372.366 457.587 372.366 455.88C372.366 454.44 372.739 453.267 373.486 452.36C374.286 451.453 375.272 450.733 376.446 450.2C377.672 449.613 379.459 448.893 381.806 448.04L389.566 445.16V440.36C389.566 437.053 389.219 434.653 388.526 433.16C387.886 431.613 386.846 430.84 385.406 430.84C383.646 430.84 382.366 431.507 381.566 432.84C380.819 434.12 380.366 435.56 380.206 437.16C379.886 439.88 378.526 441.24 376.126 441.24C374.952 441.24 374.072 440.973 373.486 440.44C372.952 439.907 372.686 439.24 372.686 438.44C372.686 436.947 373.566 435.507 375.326 434.12C377.139 432.68 379.299 431.533 381.806 430.68C384.366 429.773 386.606 429.32 388.526 429.32C390.819 429.32 392.632 430.04 393.966 431.48C395.352 432.92 396.046 435.08 396.046 437.96V452.36C396.046 454.013 396.312 455.267 396.846 456.12C397.379 456.973 398.152 457.4 399.166 457.4C399.966 457.4 400.926 457.16 402.046 456.68H402.206ZM389.566 455.24V454.44V446.52L384.766 448.52C383.379 449.053 382.232 449.693 381.326 450.44C380.472 451.133 380.046 452.147 380.046 453.48C380.046 454.76 380.446 455.8 381.246 456.6C382.099 457.347 383.112 457.72 384.286 457.72C385.246 457.72 386.259 457.4 387.326 456.76L389.566 455.24ZM432.679 455.96C432.786 455.96 432.893 456.067 432.999 456.28C433.159 456.493 433.186 456.653 433.079 456.76C431.106 458.573 429.133 459.907 427.159 460.76C425.186 461.56 423.053 461.96 420.759 461.96C417.506 461.96 414.679 461.24 412.279 459.8C409.933 458.36 408.119 456.467 406.839 454.12C405.613 451.773 404.999 449.24 404.999 446.52C404.999 443.373 405.773 440.493 407.319 437.88C408.866 435.267 410.973 433.213 413.639 431.72C416.359 430.173 419.373 429.4 422.679 429.4C425.879 429.4 428.359 430.173 430.119 431.72C431.879 433.267 432.759 435.56 432.759 438.6C432.759 440.147 432.439 440.92 431.799 440.92L412.279 441C412.226 441.48 412.199 442.2 412.199 443.16C412.199 447.853 413.266 451.587 415.399 454.36C417.586 457.08 420.679 458.44 424.679 458.44C426.173 458.44 427.426 458.28 428.439 457.96C429.453 457.587 430.813 456.947 432.519 456.04L432.679 455.96ZM419.799 431C417.826 431 416.199 431.773 414.919 433.32C413.693 434.813 412.866 436.893 412.439 439.56L425.239 439.32C425.133 433.773 423.319 431 419.799 431ZM444.523 434.28C444.523 435.933 445.083 437.32 446.203 438.44C447.376 439.56 449.056 440.733 451.243 441.96C453.163 443.027 454.629 443.907 455.643 444.6C456.709 445.293 457.616 446.227 458.363 447.4C459.163 448.573 459.563 449.987 459.563 451.64C459.563 453.453 459.109 455.133 458.203 456.68C457.296 458.227 455.936 459.48 454.123 460.44C452.363 461.4 450.256 461.88 447.803 461.88C444.869 461.88 442.176 461.133 439.723 459.64C439.403 459.32 439.243 459 439.243 458.68L439.083 451.32C439.083 451.16 439.216 451.08 439.483 451.08C439.803 451.027 439.989 451.053 440.043 451.16C440.949 453.827 442.309 456.013 444.123 457.72C445.989 459.427 447.963 460.28 450.043 460.28C451.376 460.28 452.416 459.933 453.163 459.24C453.909 458.547 454.283 457.507 454.283 456.12C454.283 454.093 453.696 452.493 452.523 451.32C451.349 450.093 449.643 448.893 447.403 447.72C445.589 446.76 444.176 445.96 443.163 445.32C442.149 444.627 441.269 443.72 440.523 442.6C439.829 441.427 439.483 439.987 439.483 438.28C439.483 435.24 440.576 432.973 442.763 431.48C445.003 429.987 447.696 429.24 450.843 429.24C452.923 429.24 455.056 429.64 457.243 430.44C457.723 430.653 457.963 430.947 457.963 431.32C457.963 432.547 457.936 433.507 457.883 434.2L457.803 438.04C457.803 438.2 457.643 438.28 457.323 438.28C457.003 438.28 456.843 438.2 456.843 438.04C456.843 436.973 456.416 435.88 455.562 434.76C454.709 433.587 453.616 432.627 452.283 431.88C450.949 431.133 449.589 430.76 448.203 430.76C445.749 430.76 444.523 431.933 444.523 434.28ZM488.116 455.88C488.276 455.88 488.409 455.987 488.516 456.2C488.676 456.413 488.676 456.573 488.516 456.68C486.542 458.547 484.676 459.907 482.916 460.76C481.156 461.56 479.289 461.96 477.316 461.96C475.022 461.96 473.076 461.427 471.476 460.36C469.929 459.24 469.156 457.4 469.156 454.84V436.76C469.156 435 468.862 433.827 468.276 433.24C467.742 432.653 466.676 432.36 465.076 432.36C465.022 432.36 464.942 432.307 464.836 432.2C464.782 432.04 464.756 431.88 464.756 431.72C464.756 431.56 464.782 431.427 464.836 431.32C464.942 431.16 465.022 431.08 465.076 431.08C470.089 430.867 473.236 428.707 474.516 424.6C474.622 424.387 474.836 424.28 475.156 424.28C475.529 424.28 475.716 424.387 475.716 424.6V430.92C478.222 430.867 481.769 430.6 486.356 430.12C486.462 430.12 486.569 430.333 486.676 430.76C486.836 431.133 486.916 431.56 486.916 432.04C486.916 432.52 486.809 433 486.596 433.48C486.436 433.96 486.249 434.173 486.036 434.12C483.049 433.427 479.609 433 475.716 432.84V452.2C475.716 454.28 476.222 455.827 477.236 456.84C478.302 457.8 479.769 458.28 481.636 458.28C483.876 458.28 485.982 457.507 487.956 455.96L488.116 455.88ZM528.349 460.04C528.562 460.04 528.669 460.2 528.669 460.52C528.669 460.84 528.562 461 528.349 461C527.015 461 525.949 460.973 525.149 460.92L520.589 460.84L516.029 460.92C515.229 460.973 514.162 461 512.829 461C512.669 461 512.589 460.84 512.589 460.52C512.589 460.2 512.669 460.04 512.829 460.04C514.589 460.04 515.789 459.667 516.429 458.92C517.069 458.12 517.389 456.653 517.389 454.52V442.6C517.389 436.733 515.095 433.8 510.509 433.8C509.069 433.8 507.602 434.147 506.109 434.84C504.669 435.48 503.389 436.36 502.269 437.48V454.52C502.269 456.707 502.562 458.173 503.149 458.92C503.789 459.667 505.015 460.04 506.829 460.04C507.042 460.04 507.149 460.2 507.149 460.52C507.149 460.84 507.042 461 506.829 461C505.495 461 504.429 460.973 503.629 460.92L499.069 460.84L494.509 460.92C493.709 460.973 492.642 461 491.309 461C491.149 461 491.069 460.84 491.069 460.52C491.069 460.2 491.149 460.04 491.309 460.04C493.069 460.04 494.269 459.667 494.909 458.92C495.549 458.12 495.869 456.653 495.869 454.52V413.64C495.869 411.773 495.682 410.44 495.309 409.64C494.935 408.787 494.322 408.36 493.469 408.36C492.669 408.36 491.575 408.68 490.189 409.32H490.109C489.949 409.32 489.789 409.187 489.629 408.92C489.522 408.6 489.549 408.413 489.709 408.36L500.829 403.08L501.229 403C501.442 403 501.655 403.107 501.869 403.32C502.135 403.533 502.269 403.72 502.269 403.88V435.88C506.109 431.453 510.189 429.24 514.509 429.24C517.442 429.24 519.709 430.12 521.309 431.88C522.962 433.64 523.789 436.04 523.789 439.08V454.52C523.789 456.707 524.082 458.173 524.669 458.92C525.309 459.667 526.535 460.04 528.349 460.04ZM560.258 455.96C560.364 455.96 560.471 456.067 560.578 456.28C560.738 456.493 560.764 456.653 560.658 456.76C558.684 458.573 556.711 459.907 554.738 460.76C552.764 461.56 550.631 461.96 548.338 461.96C545.084 461.96 542.258 461.24 539.858 459.8C537.511 458.36 535.698 456.467 534.418 454.12C533.191 451.773 532.577 449.24 532.577 446.52C532.577 443.373 533.351 440.493 534.898 437.88C536.444 435.267 538.551 433.213 541.218 431.72C543.938 430.173 546.951 429.4 550.258 429.4C553.458 429.4 555.938 430.173 557.698 431.72C559.458 433.267 560.338 435.56 560.338 438.6C560.338 440.147 560.018 440.92 559.378 440.92L539.858 441C539.804 441.48 539.778 442.2 539.778 443.16C539.778 447.853 540.844 451.587 542.978 454.36C545.164 457.08 548.258 458.44 552.258 458.44C553.751 458.44 555.004 458.28 556.018 457.96C557.031 457.587 558.391 456.947 560.098 456.04L560.258 455.96ZM547.378 431C545.404 431 543.778 431.773 542.498 433.32C541.271 434.813 540.444 436.893 540.018 439.56L552.818 439.32C552.711 433.773 550.898 431 547.378 431ZM588.741 455.88C588.901 455.88 589.034 455.987 589.141 456.2C589.301 456.413 589.301 456.573 589.141 456.68C587.167 458.547 585.301 459.907 583.541 460.76C581.781 461.56 579.914 461.96 577.941 461.96C575.647 461.96 573.701 461.427 572.101 460.36C570.554 459.24 569.781 457.4 569.781 454.84V436.76C569.781 435 569.487 433.827 568.901 433.24C568.367 432.653 567.301 432.36 565.701 432.36C565.647 432.36 565.567 432.307 565.461 432.2C565.407 432.04 565.381 431.88 565.381 431.72C565.381 431.56 565.407 431.427 565.461 431.32C565.567 431.16 565.647 431.08 565.701 431.08C570.714 430.867 573.861 428.707 575.141 424.6C575.247 424.387 575.461 424.28 575.781 424.28C576.154 424.28 576.341 424.387 576.341 424.6V430.92C578.847 430.867 582.394 430.6 586.981 430.12C587.087 430.12 587.194 430.333 587.301 430.76C587.461 431.133 587.541 431.56 587.541 432.04C587.541 432.52 587.434 433 587.221 433.48C587.061 433.96 586.874 434.173 586.661 434.12C583.674 433.427 580.234 433 576.341 432.84V452.2C576.341 454.28 576.847 455.827 577.861 456.84C578.927 457.8 580.394 458.28 582.261 458.28C584.501 458.28 586.607 457.507 588.581 455.96L588.741 455.88ZM600.974 420.92C599.587 420.92 598.494 420.547 597.694 419.8C596.947 419.053 596.574 417.987 596.574 416.6C596.574 415.267 596.947 414.253 597.694 413.56C598.494 412.813 599.587 412.44 600.974 412.44C602.307 412.44 603.347 412.813 604.094 413.56C604.84 414.253 605.214 415.267 605.214 416.6C605.214 417.987 604.84 419.053 604.094 419.8C603.4 420.547 602.36 420.92 600.974 420.92ZM593.614 461C593.454 461 593.374 460.84 593.374 460.52C593.374 460.2 593.454 460.04 593.614 460.04C595.427 460.04 596.627 459.667 597.214 458.92C597.8 458.173 598.094 456.707 598.094 454.52V439.96C598.094 438.147 597.907 436.84 597.534 436.04C597.16 435.187 596.52 434.76 595.614 434.76C594.814 434.76 593.774 435.08 592.494 435.72H592.414C592.2 435.72 592.04 435.587 591.934 435.32C591.827 435.053 591.854 434.867 592.014 434.76L603.534 429.4L603.774 429.32C603.987 429.32 604.2 429.453 604.414 429.72C604.68 429.933 604.814 430.12 604.814 430.28V431.96C604.707 434.2 604.654 436.84 604.654 439.88V454.52C604.654 456.707 604.947 458.173 605.534 458.92C606.174 459.667 607.4 460.04 609.214 460.04C609.374 460.04 609.454 460.2 609.454 460.52C609.454 460.84 609.374 461 609.214 461C607.88 461 606.814 460.973 606.014 460.92L601.374 460.84L596.734 460.92C595.987 460.973 594.947 461 593.614 461ZM629.984 461.96C626.517 461.96 623.557 461.213 621.104 459.72C618.704 458.173 616.917 456.2 615.744 453.8C614.57 451.347 613.984 448.787 613.984 446.12C613.984 442.76 614.89 439.827 616.704 437.32C618.517 434.76 620.837 432.813 623.664 431.48C626.544 430.093 629.45 429.4 632.384 429.4C634.89 429.4 637.157 429.907 639.184 430.92C641.21 431.933 642.224 433.293 642.224 435C642.224 435.907 641.877 436.707 641.184 437.4C640.49 438.04 639.53 438.36 638.304 438.36C636.277 438.36 634.81 437.16 633.904 434.76C633.37 433.427 632.81 432.493 632.224 431.96C631.637 431.373 630.704 431.08 629.424 431.08C626.917 431.08 624.917 432.227 623.424 434.52C621.984 436.76 621.264 439.773 621.264 443.56C621.264 447.987 622.277 451.587 624.304 454.36C626.384 457.08 629.61 458.44 633.984 458.44C635.477 458.44 636.81 458.253 637.984 457.88C639.157 457.507 640.437 456.92 641.824 456.12H641.904C642.064 456.12 642.197 456.2 642.304 456.36C642.464 456.52 642.49 456.653 642.384 456.76C640.41 458.52 638.464 459.827 636.544 460.68C634.624 461.533 632.437 461.96 629.984 461.96ZM653.898 434.28C653.898 435.933 654.458 437.32 655.578 438.44C656.751 439.56 658.431 440.733 660.618 441.96C662.538 443.027 664.004 443.907 665.018 444.6C666.084 445.293 666.991 446.227 667.738 447.4C668.538 448.573 668.938 449.987 668.938 451.64C668.938 453.453 668.484 455.133 667.578 456.68C666.671 458.227 665.311 459.48 663.498 460.44C661.738 461.4 659.631 461.88 657.178 461.88C654.244 461.88 651.551 461.133 649.098 459.64C648.778 459.32 648.618 459 648.618 458.68L648.458 451.32C648.458 451.16 648.591 451.08 648.858 451.08C649.178 451.027 649.364 451.053 649.418 451.16C650.324 453.827 651.684 456.013 653.498 457.72C655.364 459.427 657.338 460.28 659.418 460.28C660.751 460.28 661.791 459.933 662.538 459.24C663.284 458.547 663.658 457.507 663.658 456.12C663.658 454.093 663.071 452.493 661.898 451.32C660.724 450.093 659.018 448.893 656.778 447.72C654.964 446.76 653.551 445.96 652.538 445.32C651.524 444.627 650.644 443.72 649.898 442.6C649.204 441.427 648.858 439.987 648.858 438.28C648.858 435.24 649.951 432.973 652.138 431.48C654.378 429.987 657.071 429.24 660.218 429.24C662.298 429.24 664.431 429.64 666.618 430.44C667.098 430.653 667.338 430.947 667.338 431.32C667.338 432.547 667.311 433.507 667.258 434.2L667.178 438.04C667.178 438.2 667.018 438.28 666.698 438.28C666.378 438.28 666.218 438.2 666.218 438.04C666.218 436.973 665.791 435.88 664.938 434.76C664.084 433.587 662.991 432.627 661.658 431.88C660.324 431.133 658.964 430.76 657.578 430.76C655.124 430.76 653.898 431.933 653.898 434.28ZM750.881 460.04C751.094 460.04 751.201 460.2 751.201 460.52C751.201 460.84 751.094 461 750.881 461C749.547 461 748.481 460.973 747.681 460.92L743.121 460.84L738.561 460.92C737.761 460.973 736.694 461 735.361 461C735.201 461 735.121 460.84 735.121 460.52C735.121 460.2 735.201 460.04 735.361 460.04C737.121 460.04 738.321 459.667 738.961 458.92C739.601 458.12 739.921 456.653 739.921 454.52V442.6C739.921 439.613 739.387 437.4 738.321 435.96C737.307 434.52 735.734 433.8 733.601 433.8C732.161 433.8 730.721 434.147 729.281 434.84C727.841 435.533 726.587 436.467 725.521 437.64V438.44V454.52C725.521 456.707 725.814 458.173 726.401 458.92C727.041 459.667 728.267 460.04 730.081 460.04C730.241 460.04 730.321 460.2 730.321 460.52C730.321 460.84 730.241 461 730.081 461C728.747 461 727.681 460.973 726.881 460.92L722.241 460.84L717.681 460.92C716.881 460.973 715.814 461 714.481 461C714.321 461 714.241 460.84 714.241 460.52C714.241 460.2 714.321 460.04 714.481 460.04C716.294 460.04 717.494 459.667 718.081 458.92C718.721 458.173 719.041 456.707 719.041 454.52V442.6C719.041 439.613 718.507 437.4 717.441 435.96C716.427 434.52 714.854 433.8 712.721 433.8C711.387 433.8 710.027 434.12 708.641 434.76C707.254 435.4 706.027 436.253 704.961 437.32V454.52C704.961 456.707 705.254 458.173 705.841 458.92C706.427 459.667 707.627 460.04 709.441 460.04C709.601 460.04 709.681 460.2 709.681 460.52C709.681 460.84 709.601 461 709.441 461C708.107 461 707.067 460.973 706.321 460.92L701.681 460.84L697.041 460.92C696.294 460.973 695.254 461 693.921 461C693.761 461 693.681 460.84 693.681 460.52C693.681 460.2 693.761 460.04 693.921 460.04C695.734 460.04 696.934 459.667 697.521 458.92C698.107 458.173 698.401 456.707 698.401 454.52V439.24C698.401 437.533 698.187 436.28 697.761 435.48C697.387 434.68 696.747 434.28 695.841 434.28C695.041 434.28 693.707 434.68 691.841 435.48H691.761C691.547 435.48 691.387 435.347 691.281 435.08C691.174 434.813 691.201 434.653 691.361 434.6L701.841 429.48C702.161 429.373 702.347 429.32 702.401 429.32C702.934 429.32 703.467 429.933 704.001 431.16C704.587 432.333 704.907 433.88 704.961 435.8C708.534 431.427 712.427 429.24 716.641 429.24C719.094 429.24 721.067 429.853 722.561 431.08C724.054 432.253 724.987 433.987 725.361 436.28C729.147 431.587 733.201 429.24 737.521 429.24C740.347 429.24 742.507 430.067 744.001 431.72C745.547 433.32 746.321 435.773 746.321 439.08V454.52C746.321 456.707 746.614 458.173 747.201 458.92C747.841 459.667 749.067 460.04 750.881 460.04ZM785.878 456.68C786.091 456.68 786.224 456.813 786.278 457.08C786.331 457.293 786.251 457.453 786.038 457.56L777.798 461.48C777.584 461.587 777.344 461.64 777.078 461.64C776.278 461.64 775.504 461.187 774.758 460.28C774.064 459.32 773.611 458.067 773.398 456.52L769.718 459.08C768.438 459.987 767.264 460.627 766.198 461C765.184 461.373 764.038 461.56 762.758 461.56C760.571 461.56 758.891 461.053 757.717 460.04C756.598 458.973 756.038 457.587 756.038 455.88C756.038 454.44 756.411 453.267 757.158 452.36C757.958 451.453 758.944 450.733 760.118 450.2C761.344 449.613 763.131 448.893 765.478 448.04L773.238 445.16V440.36C773.238 437.053 772.891 434.653 772.198 433.16C771.558 431.613 770.518 430.84 769.078 430.84C767.318 430.84 766.038 431.507 765.238 432.84C764.491 434.12 764.038 435.56 763.878 437.16C763.558 439.88 762.198 441.24 759.798 441.24C758.624 441.24 757.744 440.973 757.158 440.44C756.624 439.907 756.358 439.24 756.358 438.44C756.358 436.947 757.238 435.507 758.998 434.12C760.811 432.68 762.971 431.533 765.478 430.68C768.038 429.773 770.278 429.32 772.198 429.32C774.491 429.32 776.304 430.04 777.638 431.48C779.024 432.92 779.718 435.08 779.718 437.96V452.36C779.718 454.013 779.984 455.267 780.518 456.12C781.051 456.973 781.824 457.4 782.838 457.4C783.638 457.4 784.598 457.16 785.718 456.68H785.878ZM773.238 455.24V454.44V446.52L768.438 448.52C767.051 449.053 765.904 449.693 764.998 450.44C764.144 451.133 763.718 452.147 763.718 453.48C763.718 454.76 764.118 455.8 764.918 456.6C765.771 457.347 766.784 457.72 767.958 457.72C768.918 457.72 769.931 457.4 770.998 456.76L773.238 455.24ZM811.631 455.88C811.791 455.88 811.925 455.987 812.031 456.2C812.191 456.413 812.191 456.573 812.031 456.68C810.058 458.547 808.191 459.907 806.431 460.76C804.671 461.56 802.805 461.96 800.831 461.96C798.538 461.96 796.591 461.427 794.991 460.36C793.445 459.24 792.671 457.4 792.671 454.84V436.76C792.671 435 792.378 433.827 791.791 433.24C791.258 432.653 790.191 432.36 788.591 432.36C788.538 432.36 788.458 432.307 788.351 432.2C788.298 432.04 788.271 431.88 788.271 431.72C788.271 431.56 788.298 431.427 788.351 431.32C788.458 431.16 788.538 431.08 788.591 431.08C793.605 430.867 796.751 428.707 798.031 424.6C798.138 424.387 798.351 424.28 798.671 424.28C799.045 424.28 799.231 424.387 799.231 424.6V430.92C801.738 430.867 805.285 430.6 809.871 430.12C809.978 430.12 810.085 430.333 810.191 430.76C810.351 431.133 810.431 431.56 810.431 432.04C810.431 432.52 810.325 433 810.111 433.48C809.951 433.96 809.765 434.173 809.551 434.12C806.565 433.427 803.125 433 799.231 432.84V452.2C799.231 454.28 799.738 455.827 800.751 456.84C801.818 457.8 803.285 458.28 805.151 458.28C807.391 458.28 809.498 457.507 811.471 455.96L811.631 455.88ZM838.584 455.88C838.744 455.88 838.878 455.987 838.984 456.2C839.144 456.413 839.144 456.573 838.984 456.68C837.011 458.547 835.144 459.907 833.384 460.76C831.624 461.56 829.758 461.96 827.784 461.96C825.491 461.96 823.544 461.427 821.944 460.36C820.398 459.24 819.624 457.4 819.624 454.84V436.76C819.624 435 819.331 433.827 818.744 433.24C818.211 432.653 817.144 432.36 815.544 432.36C815.491 432.36 815.411 432.307 815.304 432.2C815.251 432.04 815.224 431.88 815.224 431.72C815.224 431.56 815.251 431.427 815.304 431.32C815.411 431.16 815.491 431.08 815.544 431.08C820.558 430.867 823.704 428.707 824.984 424.6C825.091 424.387 825.304 424.28 825.624 424.28C825.998 424.28 826.184 424.387 826.184 424.6V430.92C828.691 430.867 832.238 430.6 836.824 430.12C836.931 430.12 837.038 430.333 837.144 430.76C837.304 431.133 837.384 431.56 837.384 432.04C837.384 432.52 837.278 433 837.064 433.48C836.904 433.96 836.718 434.173 836.504 434.12C833.518 433.427 830.078 433 826.184 432.84V452.2C826.184 454.28 826.691 455.827 827.704 456.84C828.771 457.8 830.238 458.28 832.104 458.28C834.344 458.28 836.451 457.507 838.424 455.96L838.584 455.88ZM870.258 455.96C870.364 455.96 870.471 456.067 870.578 456.28C870.738 456.493 870.764 456.653 870.658 456.76C868.684 458.573 866.711 459.907 864.738 460.76C862.764 461.56 860.631 461.96 858.338 461.96C855.084 461.96 852.258 461.24 849.858 459.8C847.511 458.36 845.698 456.467 844.418 454.12C843.191 451.773 842.577 449.24 842.577 446.52C842.577 443.373 843.351 440.493 844.898 437.88C846.444 435.267 848.551 433.213 851.218 431.72C853.938 430.173 856.951 429.4 860.258 429.4C863.458 429.4 865.938 430.173 867.698 431.72C869.458 433.267 870.338 435.56 870.338 438.6C870.338 440.147 870.018 440.92 869.378 440.92L849.858 441C849.804 441.48 849.778 442.2 849.778 443.16C849.778 447.853 850.844 451.587 852.978 454.36C855.164 457.08 858.258 458.44 862.258 458.44C863.751 458.44 865.004 458.28 866.018 457.96C867.031 457.587 868.391 456.947 870.098 456.04L870.258 455.96ZM857.378 431C855.404 431 853.778 431.773 852.498 433.32C851.271 434.813 850.444 436.893 850.018 439.56L862.818 439.32C862.711 433.773 860.898 431 857.378 431ZM896.421 429.32C897.647 429.32 898.821 429.72 899.941 430.52C901.061 431.32 901.621 432.28 901.621 433.4C901.621 434.413 901.301 435.24 900.661 435.88C900.074 436.52 899.247 436.84 898.181 436.84C897.487 436.84 896.901 436.707 896.421 436.44C895.994 436.12 895.541 435.693 895.061 435.16C894.581 434.68 894.154 434.333 893.781 434.12C893.407 433.853 892.954 433.72 892.421 433.72C891.834 433.72 891.194 433.96 890.501 434.44C889.861 434.867 888.847 435.8 887.461 437.24V454.52C887.461 456.013 887.674 457.16 888.101 457.96C888.527 458.707 889.247 459.24 890.261 459.56C891.274 459.88 892.767 460.04 894.741 460.04C894.954 460.04 895.061 460.2 895.061 460.52C895.061 460.84 894.954 461 894.741 461C892.981 461 891.567 460.973 890.501 460.92L884.181 460.84L879.541 460.92C878.794 460.973 877.754 461 876.421 461C876.261 461 876.181 460.84 876.181 460.52C876.181 460.2 876.261 460.04 876.421 460.04C878.234 460.04 879.434 459.667 880.021 458.92C880.607 458.173 880.901 456.707 880.901 454.52V439.24C880.901 437.533 880.687 436.28 880.261 435.48C879.887 434.68 879.247 434.28 878.341 434.28C877.541 434.28 876.207 434.68 874.341 435.48H874.261C874.047 435.48 873.887 435.347 873.781 435.08C873.674 434.813 873.701 434.653 873.861 434.6L884.341 429.48C884.661 429.373 884.847 429.32 884.901 429.32C885.434 429.32 885.967 429.907 886.501 431.08C887.034 432.2 887.354 433.693 887.461 435.56C889.541 433.213 891.274 431.587 892.661 430.68C894.047 429.773 895.301 429.32 896.421 429.32ZM908.49 461.88C907.157 461.88 906.09 461.48 905.29 460.68C904.49 459.88 904.09 458.813 904.09 457.48C904.09 456.2 904.49 455.187 905.29 454.44C906.09 453.693 907.157 453.32 908.49 453.32C909.877 453.32 910.943 453.693 911.69 454.44C912.437 455.187 912.81 456.2 912.81 457.48C912.81 458.867 912.437 459.96 911.69 460.76C910.943 461.507 909.877 461.88 908.49 461.88Z" fill="#473E3E"/>
</g>
<defs>
<clipPath id="clip0_81_275">
<rect width="1180" height="1109" fill="white"/>
</clipPath>
</defs>
</svg>
