<svg width="1180" height="1109" viewBox="0 0 1180 1109" fill="none" xmlns="http://www.w3.org/2000/svg">
<g clip-path="url(#clip0_101_2)">
<rect width="1180" height="1109" fill="#FFEE93"/>
<path d="M146.64 823.2C146.64 824.907 146.827 826.16 147.2 826.96C147.627 827.707 148.4 828.24 149.52 828.56C150.693 828.88 152.507 829.04 154.96 829.04C155.12 829.04 155.2 829.2 155.2 829.52C155.2 829.84 155.12 830 154.96 830C152.773 830 151.067 829.973 149.84 829.92L142.88 829.84L137.12 829.92C136.107 829.973 134.72 830 132.96 830C132.8 830 132.72 829.84 132.72 829.52C132.72 829.2 132.8 829.04 132.96 829.04C134.773 829.04 136.08 828.907 136.88 828.64C137.68 828.373 138.213 827.867 138.48 827.12C138.8 826.373 138.96 825.173 138.96 823.52V786.48C138.96 784.88 138.8 783.707 138.48 782.96C138.213 782.213 137.653 781.707 136.8 781.44C136 781.12 134.72 780.96 132.96 780.96C132.8 780.96 132.72 780.8 132.72 780.48C132.72 780.16 132.8 780 132.96 780L137.12 780.08C139.467 780.187 141.36 780.24 142.8 780.24C144.027 780.24 145.52 780.16 147.28 780C147.92 779.947 148.773 779.893 149.84 779.84C150.96 779.787 152.267 779.76 153.76 779.76C159.04 779.76 163.2 780.88 166.24 783.12C169.333 785.36 170.88 788.8 170.88 793.44C170.88 796.8 170 799.653 168.24 802C166.533 804.347 164.32 806.107 161.6 807.28C158.933 808.453 156.187 809.04 153.36 809.04C151.867 809.04 150.613 808.907 149.6 808.64C149.44 808.64 149.36 808.507 149.36 808.24C149.36 808.08 149.387 807.92 149.44 807.76C149.547 807.6 149.653 807.547 149.76 807.6C150.613 807.813 151.547 807.92 152.56 807.92C155.333 807.92 157.68 806.773 159.6 804.48C161.52 802.187 162.48 798.907 162.48 794.64C162.48 790.427 161.493 787.173 159.52 784.88C157.547 782.533 154.827 781.36 151.36 781.36C150.08 781.36 149.093 781.493 148.4 781.76C147.76 782.027 147.307 782.533 147.04 783.28C146.773 783.973 146.64 785.093 146.64 786.64V823.2ZM202.429 824.96C202.536 824.96 202.643 825.067 202.749 825.28C202.909 825.493 202.936 825.653 202.829 825.76C200.856 827.573 198.883 828.907 196.909 829.76C194.936 830.56 192.803 830.96 190.509 830.96C187.256 830.96 184.429 830.24 182.029 828.8C179.683 827.36 177.869 825.467 176.589 823.12C175.363 820.773 174.749 818.24 174.749 815.52C174.749 812.373 175.523 809.493 177.069 806.88C178.616 804.267 180.723 802.213 183.389 800.72C186.109 799.173 189.123 798.4 192.429 798.4C195.629 798.4 198.109 799.173 199.869 800.72C201.629 802.267 202.509 804.56 202.509 807.6C202.509 809.147 202.189 809.92 201.549 809.92L182.029 810C181.976 810.48 181.949 811.2 181.949 812.16C181.949 816.853 183.016 820.587 185.149 823.36C187.336 826.08 190.429 827.44 194.429 827.44C195.923 827.44 197.176 827.28 198.189 826.96C199.203 826.587 200.563 825.947 202.269 825.04L202.429 824.96ZM189.549 800C187.576 800 185.949 800.773 184.669 802.32C183.443 803.813 182.616 805.893 182.189 808.56L194.989 808.32C194.883 802.773 193.069 800 189.549 800ZM228.593 798.32C229.819 798.32 230.993 798.72 232.113 799.52C233.233 800.32 233.793 801.28 233.793 802.4C233.793 803.413 233.473 804.24 232.833 804.88C232.246 805.52 231.419 805.84 230.353 805.84C229.659 805.84 229.073 805.707 228.593 805.44C228.166 805.12 227.713 804.693 227.233 804.16C226.753 803.68 226.326 803.333 225.953 803.12C225.579 802.853 225.126 802.72 224.593 802.72C224.006 802.72 223.366 802.96 222.673 803.44C222.033 803.867 221.019 804.8 219.633 806.24V823.52C219.633 825.013 219.846 826.16 220.273 826.96C220.699 827.707 221.419 828.24 222.433 828.56C223.446 828.88 224.939 829.04 226.913 829.04C227.126 829.04 227.233 829.2 227.233 829.52C227.233 829.84 227.126 830 226.913 830C225.153 830 223.739 829.973 222.673 829.92L216.353 829.84L211.713 829.92C210.966 829.973 209.926 830 208.593 830C208.433 830 208.353 829.84 208.353 829.52C208.353 829.2 208.433 829.04 208.593 829.04C210.406 829.04 211.606 828.667 212.193 827.92C212.779 827.173 213.073 825.707 213.073 823.52V808.24C213.073 806.533 212.859 805.28 212.433 804.48C212.059 803.68 211.419 803.28 210.513 803.28C209.713 803.28 208.379 803.68 206.513 804.48H206.433C206.219 804.48 206.059 804.347 205.953 804.08C205.846 803.813 205.873 803.653 206.033 803.6L216.513 798.48C216.833 798.373 217.019 798.32 217.072 798.32C217.606 798.32 218.139 798.907 218.673 800.08C219.206 801.2 219.526 802.693 219.633 804.56C221.713 802.213 223.446 800.587 224.833 799.68C226.219 798.773 227.473 798.32 228.593 798.32ZM244.194 803.28C244.194 804.933 244.754 806.32 245.874 807.44C247.048 808.56 248.728 809.733 250.914 810.96C252.834 812.027 254.301 812.907 255.314 813.6C256.381 814.293 257.288 815.227 258.034 816.4C258.834 817.573 259.234 818.987 259.234 820.64C259.234 822.453 258.781 824.133 257.874 825.68C256.968 827.227 255.608 828.48 253.794 829.44C252.034 830.4 249.928 830.88 247.474 830.88C244.541 830.88 241.848 830.133 239.394 828.64C239.074 828.32 238.914 828 238.914 827.68L238.754 820.32C238.754 820.16 238.888 820.08 239.154 820.08C239.474 820.027 239.661 820.053 239.714 820.16C240.621 822.827 241.981 825.013 243.794 826.72C245.661 828.427 247.634 829.28 249.714 829.28C251.048 829.28 252.088 828.933 252.834 828.24C253.581 827.547 253.954 826.507 253.954 825.12C253.954 823.093 253.368 821.493 252.194 820.32C251.021 819.093 249.314 817.893 247.074 816.72C245.261 815.76 243.848 814.96 242.834 814.32C241.821 813.627 240.941 812.72 240.194 811.6C239.501 810.427 239.154 808.987 239.154 807.28C239.154 804.24 240.248 801.973 242.434 800.48C244.674 798.987 247.368 798.24 250.514 798.24C252.594 798.24 254.728 798.64 256.914 799.44C257.394 799.653 257.634 799.947 257.634 800.32C257.634 801.547 257.608 802.507 257.554 803.2L257.474 807.04C257.474 807.2 257.314 807.28 256.994 807.28C256.674 807.28 256.514 807.2 256.514 807.04C256.514 805.973 256.088 804.88 255.234 803.76C254.381 802.587 253.288 801.627 251.954 800.88C250.621 800.133 249.261 799.76 247.874 799.76C245.421 799.76 244.194 800.933 244.194 803.28ZM280.988 831.04C277.788 831.04 274.961 830.293 272.508 828.8C270.054 827.253 268.161 825.2 266.828 822.64C265.494 820.027 264.827 817.2 264.827 814.16C264.827 810.693 265.681 807.76 267.388 805.36C269.148 802.907 271.361 801.093 274.028 799.92C276.748 798.693 279.521 798.08 282.348 798.08C285.601 798.08 288.428 798.853 290.828 800.4C293.281 801.947 295.148 804 296.428 806.56C297.708 809.067 298.348 811.76 298.348 814.64C298.348 817.84 297.548 820.693 295.948 823.2C294.401 825.707 292.294 827.653 289.628 829.04C286.961 830.373 284.081 831.04 280.988 831.04ZM283.388 829.44C285.734 829.44 287.521 828.4 288.748 826.32C290.028 824.24 290.668 821.2 290.668 817.2C290.668 813.627 290.161 810.507 289.148 807.84C288.188 805.173 286.854 803.147 285.148 801.76C283.494 800.373 281.681 799.68 279.708 799.68C277.308 799.68 275.494 800.667 274.268 802.64C273.041 804.613 272.428 807.52 272.428 811.36C272.428 814.827 272.881 817.947 273.788 820.72C274.748 823.44 276.054 825.573 277.708 827.12C279.414 828.667 281.308 829.44 283.388 829.44ZM341.414 829.04C341.574 829.04 341.654 829.2 341.654 829.52C341.654 829.84 341.574 830 341.414 830C340.08 830 339.04 829.973 338.294 829.92L333.654 829.84L329.094 829.92C328.294 829.973 327.227 830 325.894 830C325.734 830 325.654 829.84 325.654 829.52C325.654 829.2 325.734 829.04 325.894 829.04C327.707 829.04 328.907 828.667 329.494 827.92C330.08 827.173 330.374 825.707 330.374 823.52V811.52C330.374 808.533 329.814 806.347 328.694 804.96C327.627 803.52 325.92 802.8 323.574 802.8C322.187 802.8 320.774 803.12 319.334 803.76C317.894 804.4 316.587 805.253 315.414 806.32V823.52C315.414 825.707 315.707 827.173 316.294 827.92C316.88 828.667 318.08 829.04 319.894 829.04C320.054 829.04 320.134 829.2 320.134 829.52C320.134 829.84 320.054 830 319.894 830C318.56 830 317.52 829.973 316.774 829.92L312.134 829.84L307.494 829.92C306.747 829.973 305.707 830 304.374 830C304.214 830 304.134 829.84 304.134 829.52C304.134 829.2 304.214 829.04 304.374 829.04C306.187 829.04 307.387 828.667 307.974 827.92C308.56 827.173 308.854 825.707 308.854 823.52V808.24C308.854 806.533 308.64 805.28 308.214 804.48C307.84 803.68 307.2 803.28 306.294 803.28C305.494 803.28 304.16 803.68 302.294 804.48H302.214C302 804.48 301.84 804.347 301.734 804.08C301.627 803.813 301.654 803.653 301.814 803.6L312.294 798.48C312.614 798.373 312.8 798.32 312.854 798.32C313.387 798.32 313.92 798.933 314.454 800.16C315.04 801.333 315.36 802.88 315.414 804.8C319.147 800.373 323.2 798.16 327.574 798.16C330.507 798.16 332.8 799.067 334.454 800.88C336.107 802.64 336.934 805.04 336.934 808.08V823.52C336.934 825.707 337.227 827.173 337.814 827.92C338.4 828.667 339.6 829.04 341.414 829.04ZM376.409 825.68C376.622 825.68 376.755 825.813 376.809 826.08C376.862 826.293 376.782 826.453 376.569 826.56L368.329 830.48C368.115 830.587 367.875 830.64 367.609 830.64C366.809 830.64 366.035 830.187 365.289 829.28C364.595 828.32 364.142 827.067 363.929 825.52L360.249 828.08C358.969 828.987 357.795 829.627 356.729 830C355.715 830.373 354.569 830.56 353.289 830.56C351.102 830.56 349.422 830.053 348.249 829.04C347.129 827.973 346.569 826.587 346.569 824.88C346.569 823.44 346.942 822.267 347.689 821.36C348.489 820.453 349.475 819.733 350.649 819.2C351.875 818.613 353.662 817.893 356.009 817.04L363.769 814.16V809.36C363.769 806.053 363.422 803.653 362.729 802.16C362.089 800.613 361.049 799.84 359.609 799.84C357.849 799.84 356.569 800.507 355.769 801.84C355.022 803.12 354.569 804.56 354.409 806.16C354.089 808.88 352.729 810.24 350.329 810.24C349.155 810.24 348.275 809.973 347.689 809.44C347.155 808.907 346.889 808.24 346.889 807.44C346.889 805.947 347.769 804.507 349.529 803.12C351.342 801.68 353.502 800.533 356.009 799.68C358.569 798.773 360.809 798.32 362.729 798.32C365.022 798.32 366.835 799.04 368.169 800.48C369.555 801.92 370.249 804.08 370.249 806.96V821.36C370.249 823.013 370.515 824.267 371.049 825.12C371.582 825.973 372.355 826.4 373.369 826.4C374.169 826.4 375.129 826.16 376.249 825.68H376.409ZM363.769 824.24V823.44V815.52L358.969 817.52C357.582 818.053 356.435 818.693 355.529 819.44C354.675 820.133 354.249 821.147 354.249 822.48C354.249 823.76 354.649 824.8 355.449 825.6C356.302 826.347 357.315 826.72 358.489 826.72C359.449 826.72 360.462 826.4 361.529 825.76L363.769 824.24ZM379.523 830C379.363 830 379.283 829.84 379.283 829.52C379.283 829.2 379.363 829.04 379.523 829.04C381.283 829.04 382.483 828.667 383.123 827.92C383.763 827.12 384.083 825.653 384.083 823.52V782.64C384.083 780.773 383.896 779.44 383.523 778.64C383.203 777.787 382.589 777.36 381.683 777.36C380.883 777.36 379.816 777.68 378.483 778.32H378.403C378.189 778.32 378.029 778.187 377.923 777.92C377.816 777.653 377.816 777.467 377.923 777.36L389.203 772.08L389.523 772C389.736 772 389.976 772.107 390.243 772.32C390.563 772.533 390.723 772.72 390.723 772.88V823.52C390.723 825.707 391.016 827.173 391.603 827.92C392.189 828.667 393.389 829.04 395.203 829.04C395.363 829.04 395.443 829.2 395.443 829.52C395.443 829.84 395.363 830 395.203 830C393.923 830 392.883 829.973 392.083 829.92L387.363 829.84L382.723 829.92C381.923 829.973 380.856 830 379.523 830ZM408.614 789.92C407.228 789.92 406.134 789.547 405.334 788.8C404.588 788.053 404.214 786.987 404.214 785.6C404.214 784.267 404.588 783.253 405.334 782.56C406.134 781.813 407.228 781.44 408.614 781.44C409.948 781.44 410.988 781.813 411.734 782.56C412.481 783.253 412.854 784.267 412.854 785.6C412.854 786.987 412.481 788.053 411.734 788.8C411.041 789.547 410.001 789.92 408.614 789.92ZM401.254 830C401.094 830 401.014 829.84 401.014 829.52C401.014 829.2 401.094 829.04 401.254 829.04C403.068 829.04 404.268 828.667 404.854 827.92C405.441 827.173 405.734 825.707 405.734 823.52V808.96C405.734 807.147 405.548 805.84 405.174 805.04C404.801 804.187 404.161 803.76 403.254 803.76C402.454 803.76 401.414 804.08 400.134 804.72H400.054C399.841 804.72 399.681 804.587 399.574 804.32C399.468 804.053 399.494 803.867 399.654 803.76L411.174 798.4L411.414 798.32C411.628 798.32 411.841 798.453 412.054 798.72C412.321 798.933 412.454 799.12 412.454 799.28V800.96C412.348 803.2 412.294 805.84 412.294 808.88V823.52C412.294 825.707 412.588 827.173 413.174 827.92C413.814 828.667 415.041 829.04 416.854 829.04C417.014 829.04 417.094 829.2 417.094 829.52C417.094 829.84 417.014 830 416.854 830C415.521 830 414.454 829.973 413.654 829.92L409.014 829.84L404.374 829.92C403.628 829.973 402.588 830 401.254 830ZM440.184 800.8C440.398 800.427 440.264 800.24 439.784 800.24C434.824 800.24 430.958 800.88 428.184 802.16C425.464 803.387 423.624 805.44 422.664 808.32C422.664 808.373 422.558 808.4 422.344 808.4C421.918 808.4 421.731 808.293 421.784 808.08L424.984 796.24C424.984 796.187 425.091 796.16 425.304 796.16C425.731 796.16 425.918 796.267 425.864 796.48C425.758 796.907 425.704 797.2 425.704 797.36C425.704 798.053 426.024 798.533 426.664 798.8C427.304 799.013 428.344 799.12 429.784 799.12H447.704C447.918 799.12 448.104 799.227 448.264 799.44C448.424 799.653 448.451 799.867 448.344 800.08L429.864 828.08C429.704 828.453 429.838 828.64 430.264 828.64C434.264 828.64 437.438 828.373 439.784 827.84C442.184 827.307 444.024 826.427 445.304 825.2C446.584 823.92 447.518 822.16 448.104 819.92C448.158 819.76 448.318 819.68 448.584 819.68C448.904 819.68 449.064 819.76 449.064 819.92L448.904 829.12C448.904 829.333 448.824 829.547 448.664 829.76C448.504 829.92 448.318 830 448.104 830H422.424C422.211 830 422.024 829.893 421.864 829.68C421.758 829.467 421.758 829.253 421.864 829.04L440.184 800.8ZM484.846 825.68C485.06 825.68 485.193 825.813 485.246 826.08C485.3 826.293 485.22 826.453 485.006 826.56L476.766 830.48C476.553 830.587 476.313 830.64 476.046 830.64C475.246 830.64 474.473 830.187 473.726 829.28C473.033 828.32 472.58 827.067 472.366 825.52L468.686 828.08C467.406 828.987 466.233 829.627 465.166 830C464.153 830.373 463.006 830.56 461.726 830.56C459.54 830.56 457.86 830.053 456.686 829.04C455.566 827.973 455.006 826.587 455.006 824.88C455.006 823.44 455.38 822.267 456.126 821.36C456.926 820.453 457.913 819.733 459.086 819.2C460.313 818.613 462.1 817.893 464.446 817.04L472.206 814.16V809.36C472.206 806.053 471.86 803.653 471.166 802.16C470.526 800.613 469.486 799.84 468.046 799.84C466.286 799.84 465.006 800.507 464.206 801.84C463.46 803.12 463.006 804.56 462.846 806.16C462.526 808.88 461.166 810.24 458.766 810.24C457.593 810.24 456.713 809.973 456.126 809.44C455.593 808.907 455.326 808.24 455.326 807.44C455.326 805.947 456.206 804.507 457.966 803.12C459.78 801.68 461.94 800.533 464.446 799.68C467.006 798.773 469.246 798.32 471.166 798.32C473.46 798.32 475.273 799.04 476.606 800.48C477.993 801.92 478.686 804.08 478.686 806.96V821.36C478.686 823.013 478.953 824.267 479.486 825.12C480.02 825.973 480.793 826.4 481.806 826.4C482.606 826.4 483.566 826.16 484.686 825.68H484.846ZM472.206 824.24V823.44V815.52L467.406 817.52C466.02 818.053 464.873 818.693 463.966 819.44C463.113 820.133 462.686 821.147 462.686 822.48C462.686 823.76 463.086 824.8 463.886 825.6C464.74 826.347 465.753 826.72 466.926 826.72C467.886 826.72 468.9 826.4 469.966 825.76L472.206 824.24ZM510.6 824.88C510.76 824.88 510.893 824.987 511 825.2C511.16 825.413 511.16 825.573 511 825.68C509.027 827.547 507.16 828.907 505.4 829.76C503.64 830.56 501.773 830.96 499.8 830.96C497.507 830.96 495.56 830.427 493.96 829.36C492.413 828.24 491.64 826.4 491.64 823.84V805.76C491.64 804 491.347 802.827 490.76 802.24C490.227 801.653 489.16 801.36 487.56 801.36C487.507 801.36 487.427 801.307 487.32 801.2C487.267 801.04 487.24 800.88 487.24 800.72C487.24 800.56 487.267 800.427 487.32 800.32C487.427 800.16 487.507 800.08 487.56 800.08C492.573 799.867 495.72 797.707 497 793.6C497.107 793.387 497.32 793.28 497.64 793.28C498.013 793.28 498.2 793.387 498.2 793.6V799.92C500.707 799.867 504.253 799.6 508.84 799.12C508.947 799.12 509.053 799.333 509.16 799.76C509.32 800.133 509.4 800.56 509.4 801.04C509.4 801.52 509.293 802 509.08 802.48C508.92 802.96 508.733 803.173 508.52 803.12C505.533 802.427 502.093 802 498.2 801.84V821.2C498.2 823.28 498.707 824.827 499.72 825.84C500.787 826.8 502.253 827.28 504.12 827.28C506.36 827.28 508.467 826.507 510.44 824.96L510.6 824.88ZM522.833 789.92C521.446 789.92 520.353 789.547 519.553 788.8C518.806 788.053 518.433 786.987 518.433 785.6C518.433 784.267 518.806 783.253 519.553 782.56C520.353 781.813 521.446 781.44 522.833 781.44C524.166 781.44 525.206 781.813 525.953 782.56C526.7 783.253 527.073 784.267 527.073 785.6C527.073 786.987 526.7 788.053 525.953 788.8C525.26 789.547 524.22 789.92 522.833 789.92ZM515.473 830C515.313 830 515.233 829.84 515.233 829.52C515.233 829.2 515.313 829.04 515.473 829.04C517.286 829.04 518.486 828.667 519.073 827.92C519.66 827.173 519.953 825.707 519.953 823.52V808.96C519.953 807.147 519.766 805.84 519.393 805.04C519.02 804.187 518.38 803.76 517.473 803.76C516.673 803.76 515.633 804.08 514.353 804.72H514.273C514.06 804.72 513.9 804.587 513.793 804.32C513.686 804.053 513.713 803.867 513.873 803.76L525.393 798.4L525.633 798.32C525.846 798.32 526.06 798.453 526.273 798.72C526.54 798.933 526.673 799.12 526.673 799.28V800.96C526.566 803.2 526.513 805.84 526.513 808.88V823.52C526.513 825.707 526.806 827.173 527.393 827.92C528.033 828.667 529.26 829.04 531.073 829.04C531.233 829.04 531.313 829.2 531.313 829.52C531.313 829.84 531.233 830 531.073 830C529.74 830 528.673 829.973 527.873 829.92L523.233 829.84L518.593 829.92C517.846 829.973 516.806 830 515.473 830ZM552.003 831.04C548.803 831.04 545.976 830.293 543.523 828.8C541.07 827.253 539.176 825.2 537.843 822.64C536.51 820.027 535.843 817.2 535.843 814.16C535.843 810.693 536.696 807.76 538.403 805.36C540.163 802.907 542.376 801.093 545.043 799.92C547.763 798.693 550.536 798.08 553.363 798.08C556.616 798.08 559.443 798.853 561.843 800.4C564.296 801.947 566.163 804 567.443 806.56C568.723 809.067 569.363 811.76 569.363 814.64C569.363 817.84 568.563 820.693 566.963 823.2C565.416 825.707 563.31 827.653 560.643 829.04C557.976 830.373 555.096 831.04 552.003 831.04ZM554.403 829.44C556.75 829.44 558.536 828.4 559.763 826.32C561.043 824.24 561.683 821.2 561.683 817.2C561.683 813.627 561.176 810.507 560.163 807.84C559.203 805.173 557.87 803.147 556.163 801.76C554.51 800.373 552.696 799.68 550.723 799.68C548.323 799.68 546.51 800.667 545.283 802.64C544.056 804.613 543.443 807.52 543.443 811.36C543.443 814.827 543.896 817.947 544.803 820.72C545.763 823.44 547.07 825.573 548.723 827.12C550.43 828.667 552.323 829.44 554.403 829.44ZM612.429 829.04C612.589 829.04 612.669 829.2 612.669 829.52C612.669 829.84 612.589 830 612.429 830C611.096 830 610.056 829.973 609.309 829.92L604.669 829.84L600.109 829.92C599.309 829.973 598.243 830 596.909 830C596.749 830 596.669 829.84 596.669 829.52C596.669 829.2 596.749 829.04 596.909 829.04C598.723 829.04 599.923 828.667 600.509 827.92C601.096 827.173 601.389 825.707 601.389 823.52V811.52C601.389 808.533 600.829 806.347 599.709 804.96C598.643 803.52 596.936 802.8 594.589 802.8C593.203 802.8 591.789 803.12 590.349 803.76C588.909 804.4 587.603 805.253 586.429 806.32V823.52C586.429 825.707 586.723 827.173 587.309 827.92C587.896 828.667 589.096 829.04 590.909 829.04C591.069 829.04 591.149 829.2 591.149 829.52C591.149 829.84 591.069 830 590.909 830C589.576 830 588.536 829.973 587.789 829.92L583.149 829.84L578.509 829.92C577.763 829.973 576.723 830 575.389 830C575.229 830 575.149 829.84 575.149 829.52C575.149 829.2 575.229 829.04 575.389 829.04C577.203 829.04 578.403 828.667 578.989 827.92C579.576 827.173 579.869 825.707 579.869 823.52V808.24C579.869 806.533 579.656 805.28 579.229 804.48C578.856 803.68 578.216 803.28 577.309 803.28C576.509 803.28 575.176 803.68 573.309 804.48H573.229C573.016 804.48 572.856 804.347 572.749 804.08C572.643 803.813 572.669 803.653 572.829 803.6L583.309 798.48C583.629 798.373 583.816 798.32 583.869 798.32C584.403 798.32 584.936 798.933 585.469 800.16C586.056 801.333 586.376 802.88 586.429 804.8C590.163 800.373 594.216 798.16 598.589 798.16C601.523 798.16 603.816 799.067 605.469 800.88C607.123 802.64 607.949 805.04 607.949 808.08V823.52C607.949 825.707 608.243 827.173 608.829 827.92C609.416 828.667 610.616 829.04 612.429 829.04Z" fill="#2B2525"/>
<path d="M168.48 889.52C168.56 889.52 168.6 889.6 168.6 889.76C168.6 889.92 168.56 890 168.48 890C167.653 890 167 889.987 166.52 889.96L163.76 889.92L161.2 889.96C160.773 889.987 160.173 890 159.4 890C159.347 890 159.32 889.92 159.32 889.76C159.32 889.6 159.347 889.52 159.4 889.52C160.307 889.52 160.973 889.453 161.4 889.32C161.853 889.16 162.147 888.893 162.28 888.52C162.44 888.147 162.493 887.56 162.44 886.76L161.72 868.56L152.6 889.72C152.547 889.827 152.44 889.88 152.28 889.88C152.147 889.88 152.027 889.827 151.92 889.72L142.08 868.8L141.72 885.64C141.693 887.053 141.933 888.053 142.44 888.64C142.947 889.227 143.84 889.52 145.12 889.52C145.173 889.52 145.2 889.6 145.2 889.76C145.2 889.92 145.173 890 145.12 890C144.373 890 143.8 889.987 143.4 889.96L141.24 889.92L139.16 889.96C138.787 889.987 138.253 890 137.56 890C137.507 890 137.48 889.92 137.48 889.76C137.48 889.6 137.507 889.52 137.56 889.52C138.68 889.52 139.48 889.227 139.96 888.64C140.467 888.027 140.733 887.027 140.76 885.64L141.12 867.08C140.32 866.013 139.227 865.48 137.84 865.48C137.787 865.48 137.76 865.4 137.76 865.24C137.76 865.08 137.787 865 137.84 865L139.32 865.04C139.587 865.067 139.96 865.08 140.44 865.08C140.92 865.08 141.32 865.067 141.64 865.04C141.987 865.013 142.253 865 142.44 865C142.787 865 143.067 865.133 143.28 865.4C143.52 865.64 143.853 866.2 144.28 867.08L153.2 885.88L161.92 866C162.213 865.333 162.613 865 163.12 865C163.253 865 163.44 865.013 163.68 865.04C163.947 865.067 164.293 865.08 164.72 865.08L166.6 865.04C166.893 865.013 167.333 865 167.92 865C168 865 168.04 865.08 168.04 865.24C168.04 865.4 168 865.48 167.92 865.48C166.587 865.48 165.627 865.68 165.04 866.08C164.48 866.453 164.213 867.173 164.24 868.24L165.04 886.76C165.067 887.587 165.16 888.187 165.32 888.56C165.507 888.933 165.827 889.187 166.28 889.32C166.733 889.453 167.467 889.52 168.48 889.52ZM186.038 887.84C186.144 887.84 186.211 887.907 186.238 888.04C186.264 888.147 186.224 888.227 186.118 888.28L181.998 890.24C181.891 890.293 181.784 890.32 181.678 890.32C181.331 890.32 181.024 890.093 180.758 889.64C180.491 889.16 180.318 888.52 180.238 887.72L178.158 889.08C177.491 889.507 176.904 889.813 176.398 890C175.891 890.187 175.358 890.28 174.798 890.28C173.811 890.28 173.038 890.027 172.478 889.52C171.944 888.987 171.678 888.32 171.678 887.52C171.678 886.72 171.998 886.027 172.638 885.44C173.278 884.853 174.331 884.293 175.798 883.76L180.198 882.12V879.4C180.198 876.413 179.358 874.92 177.678 874.92C176.771 874.92 176.078 875.227 175.598 875.84C175.144 876.427 174.838 877.107 174.678 877.88C174.598 878.36 174.451 878.76 174.238 879.08C174.024 879.373 173.664 879.52 173.158 879.52C172.731 879.52 172.398 879.4 172.158 879.16C171.944 878.92 171.838 878.64 171.838 878.32C171.838 877.68 172.251 877.04 173.078 876.4C173.904 875.76 174.891 875.227 176.038 874.8C177.184 874.373 178.211 874.16 179.118 874.16C180.211 874.16 181.038 874.507 181.598 875.2C182.158 875.893 182.438 876.893 182.438 878.2V885.68C182.438 886.613 182.558 887.293 182.798 887.72C183.038 888.147 183.438 888.36 183.998 888.36C184.504 888.36 185.158 888.187 185.958 887.84H186.038ZM180.198 887.16V886.96V882.68L176.478 884.12C175.731 884.413 175.184 884.76 174.838 885.16C174.518 885.533 174.358 885.987 174.358 886.52C174.358 887.16 174.558 887.707 174.958 888.16C175.384 888.587 175.931 888.8 176.598 888.8C177.131 888.8 177.771 888.587 178.518 888.16L180.198 887.16ZM205.515 889.52C205.595 889.52 205.635 889.6 205.635 889.76C205.635 889.92 205.595 890 205.515 890C204.902 890 204.409 889.987 204.035 889.96L201.875 889.92L198.995 889.96C198.569 889.987 197.995 890 197.275 890C197.222 890 197.195 889.92 197.195 889.76C197.195 889.6 197.222 889.52 197.275 889.52C198.609 889.52 199.275 889.267 199.275 888.76C199.275 888.52 199.155 888.227 198.915 887.88L193.995 881.2L191.995 882.76V886.76C191.995 887.533 192.062 888.12 192.195 888.52C192.329 888.893 192.569 889.16 192.915 889.32C193.262 889.453 193.795 889.52 194.515 889.52C194.595 889.52 194.635 889.6 194.635 889.76C194.635 889.92 194.595 890 194.515 890C193.902 890 193.409 889.987 193.035 889.96L190.875 889.92L188.715 889.96C188.342 889.987 187.849 890 187.235 890C187.155 890 187.115 889.92 187.115 889.76C187.115 889.6 187.155 889.52 187.235 889.52C187.955 889.52 188.489 889.453 188.835 889.32C189.182 889.16 189.422 888.893 189.555 888.52C189.689 888.12 189.755 887.533 189.755 886.76V866.08C189.755 865.12 189.662 864.427 189.475 864C189.289 863.573 188.955 863.36 188.475 863.36C188.075 863.36 187.462 863.547 186.635 863.92H186.555C186.475 863.92 186.409 863.853 186.355 863.72C186.302 863.587 186.329 863.507 186.435 863.48L191.435 861.04L191.635 861C191.715 861 191.795 861.04 191.875 861.12C191.955 861.173 191.995 861.24 191.995 861.32V882.12L197.355 877.8C198.209 877.133 198.635 876.547 198.635 876.04C198.635 875.373 197.875 875.04 196.355 875.04C196.275 875.04 196.235 874.96 196.235 874.8C196.235 874.64 196.275 874.56 196.355 874.56C197.075 874.56 197.622 874.573 197.995 874.6L200.915 874.64L203.595 874.6C203.942 874.573 204.422 874.56 205.035 874.56C205.115 874.56 205.155 874.64 205.155 874.8C205.155 874.96 205.115 875.04 205.035 875.04C204.049 875.04 202.955 875.28 201.755 875.76C200.555 876.24 199.355 876.96 198.155 877.92L195.835 879.76L200.915 886.76C202.249 888.6 203.782 889.52 205.515 889.52ZM219.501 887.76C219.581 887.76 219.647 887.813 219.701 887.92C219.781 888 219.794 888.08 219.741 888.16C217.981 889.707 216.034 890.48 213.901 890.48C212.354 890.48 211.034 890.12 209.941 889.4C208.847 888.68 208.007 887.733 207.421 886.56C206.861 885.387 206.581 884.133 206.581 882.8C206.581 881.227 206.954 879.787 207.701 878.48C208.447 877.147 209.461 876.107 210.741 875.36C212.047 874.587 213.474 874.2 215.021 874.2C216.514 874.2 217.661 874.6 218.461 875.4C219.261 876.2 219.661 877.32 219.661 878.76C219.661 879.133 219.621 879.4 219.541 879.56C219.487 879.72 219.381 879.8 219.221 879.8L209.301 879.84C209.247 880.427 209.221 880.907 209.221 881.28C209.221 883.6 209.767 885.48 210.861 886.92C211.954 888.36 213.487 889.08 215.461 889.08C216.261 889.08 216.941 888.973 217.501 888.76C218.087 888.547 218.741 888.213 219.461 887.76H219.501ZM213.701 875C212.554 875 211.607 875.387 210.861 876.16C210.114 876.907 209.621 877.96 209.381 879.32L216.981 879.16C216.981 877.8 216.687 876.773 216.101 876.08C215.514 875.36 214.714 875 213.701 875ZM236.324 869.52C235.764 869.52 235.324 869.373 235.004 869.08C234.71 868.787 234.564 868.373 234.564 867.84C234.564 867.307 234.71 866.893 235.004 866.6C235.324 866.307 235.764 866.16 236.324 866.16C236.857 866.16 237.27 866.307 237.564 866.6C237.857 866.893 238.004 867.307 238.004 867.84C238.004 868.373 237.857 868.787 237.564 869.08C237.27 869.373 236.857 869.52 236.324 869.52ZM232.964 890C232.91 890 232.884 889.92 232.884 889.76C232.884 889.6 232.91 889.52 232.964 889.52C233.684 889.52 234.217 889.453 234.564 889.32C234.937 889.16 235.19 888.893 235.324 888.52C235.457 888.12 235.524 887.533 235.524 886.76V879.28C235.524 878.32 235.417 877.627 235.204 877.2C235.017 876.773 234.684 876.56 234.204 876.56C233.724 876.56 233.124 876.747 232.404 877.12H232.364C232.257 877.12 232.177 877.053 232.124 876.92C232.07 876.787 232.084 876.693 232.164 876.64L237.364 874.24L237.524 874.2C237.577 874.2 237.644 874.24 237.724 874.32C237.804 874.373 237.844 874.44 237.844 874.52C237.844 874.707 237.83 875.24 237.804 876.12C237.777 877 237.764 878.04 237.764 879.24V886.76C237.764 887.56 237.83 888.147 237.964 888.52C238.097 888.893 238.337 889.16 238.684 889.32C239.03 889.453 239.564 889.52 240.284 889.52C240.364 889.52 240.404 889.6 240.404 889.76C240.404 889.92 240.364 890 240.284 890C239.67 890 239.177 889.987 238.804 889.96L236.644 889.92L234.484 889.96C234.11 889.987 233.604 890 232.964 890ZM254.221 887.92C254.328 887.92 254.408 887.987 254.461 888.12C254.515 888.227 254.501 888.307 254.421 888.36C253.435 889.133 252.541 889.68 251.741 890C250.968 890.32 250.155 890.48 249.301 890.48C248.181 890.48 247.261 890.227 246.541 889.72C245.821 889.213 245.461 888.373 245.461 887.2V877.8C245.461 877.107 245.408 876.613 245.301 876.32C245.221 876.027 245.048 875.84 244.781 875.76C244.515 875.653 244.061 875.6 243.421 875.6C243.315 875.6 243.261 875.52 243.261 875.36C243.261 875.173 243.315 875.08 243.421 875.08C244.488 875.053 245.355 874.773 246.021 874.24C246.688 873.68 247.075 872.947 247.181 872.04C247.181 871.96 247.288 871.92 247.501 871.92C247.688 871.92 247.781 871.96 247.781 872.04V875C249.115 874.973 250.968 874.84 253.341 874.6C253.395 874.6 253.448 874.707 253.501 874.92C253.581 875.107 253.621 875.32 253.621 875.56C253.621 875.773 253.568 876 253.461 876.24C253.381 876.453 253.288 876.547 253.181 876.52C251.715 876.147 249.915 875.933 247.781 875.88V885.84C247.781 886.933 248.048 887.747 248.581 888.28C249.141 888.813 249.928 889.08 250.941 889.08C252.115 889.08 253.181 888.707 254.141 887.96L254.221 887.92ZM281.272 887.84C281.379 887.84 281.445 887.907 281.472 888.04C281.499 888.147 281.459 888.227 281.352 888.28L277.232 890.24C277.125 890.293 277.019 890.32 276.912 890.32C276.565 890.32 276.259 890.093 275.992 889.64C275.725 889.16 275.552 888.52 275.472 887.72L273.392 889.08C272.725 889.507 272.139 889.813 271.632 890C271.125 890.187 270.592 890.28 270.032 890.28C269.045 890.28 268.272 890.027 267.712 889.52C267.179 888.987 266.912 888.32 266.912 887.52C266.912 886.72 267.232 886.027 267.872 885.44C268.512 884.853 269.565 884.293 271.032 883.76L275.432 882.12V879.4C275.432 876.413 274.592 874.92 272.912 874.92C272.005 874.92 271.312 875.227 270.832 875.84C270.379 876.427 270.072 877.107 269.912 877.88C269.832 878.36 269.685 878.76 269.472 879.08C269.259 879.373 268.899 879.52 268.392 879.52C267.965 879.52 267.632 879.4 267.392 879.16C267.179 878.92 267.072 878.64 267.072 878.32C267.072 877.68 267.485 877.04 268.312 876.4C269.139 875.76 270.125 875.227 271.272 874.8C272.419 874.373 273.445 874.16 274.352 874.16C275.445 874.16 276.272 874.507 276.832 875.2C277.392 875.893 277.672 876.893 277.672 878.2V885.68C277.672 886.613 277.792 887.293 278.032 887.72C278.272 888.147 278.672 888.36 279.232 888.36C279.739 888.36 280.392 888.187 281.192 887.84H281.272ZM275.432 887.16V886.96V882.68L271.712 884.12C270.965 884.413 270.419 884.76 270.072 885.16C269.752 885.533 269.592 885.987 269.592 886.52C269.592 887.16 269.792 887.707 270.192 888.16C270.619 888.587 271.165 888.8 271.832 888.8C272.365 888.8 273.005 888.587 273.752 888.16L275.432 887.16ZM283.03 890C282.95 890 282.91 889.92 282.91 889.76C282.91 889.6 282.95 889.52 283.03 889.52C283.75 889.52 284.283 889.453 284.63 889.32C284.976 889.16 285.216 888.893 285.35 888.52C285.483 888.12 285.55 887.533 285.55 886.76V866.08C285.55 865.12 285.456 864.427 285.27 864C285.083 863.573 284.75 863.36 284.27 863.36C283.87 863.36 283.256 863.547 282.43 863.92H282.35C282.27 863.92 282.203 863.853 282.15 863.72C282.123 863.587 282.15 863.507 282.23 863.48L287.35 861.04C287.403 861.013 287.47 861 287.55 861C287.603 861 287.67 861.04 287.75 861.12C287.856 861.173 287.91 861.24 287.91 861.32V886.76C287.91 887.533 287.963 888.107 288.07 888.48C288.203 888.853 288.443 889.12 288.79 889.28C289.136 889.44 289.67 889.52 290.39 889.52C290.47 889.52 290.51 889.6 290.51 889.76C290.51 889.92 290.47 890 290.39 890C289.803 890 289.323 889.987 288.95 889.96L286.71 889.92L284.55 889.96C284.176 889.987 283.67 890 283.03 890ZM293.342 890C293.262 890 293.222 889.92 293.222 889.76C293.222 889.6 293.262 889.52 293.342 889.52C294.062 889.52 294.596 889.453 294.942 889.32C295.289 889.16 295.529 888.893 295.662 888.52C295.796 888.12 295.862 887.533 295.862 886.76V866.08C295.862 865.12 295.769 864.427 295.582 864C295.396 863.573 295.062 863.36 294.582 863.36C294.182 863.36 293.569 863.547 292.742 863.92H292.662C292.582 863.92 292.516 863.853 292.462 863.72C292.436 863.587 292.462 863.507 292.542 863.48L297.662 861.04C297.716 861.013 297.782 861 297.862 861C297.916 861 297.982 861.04 298.062 861.12C298.169 861.173 298.222 861.24 298.222 861.32V886.76C298.222 887.533 298.276 888.107 298.382 888.48C298.516 888.853 298.756 889.12 299.102 889.28C299.449 889.44 299.982 889.52 300.702 889.52C300.782 889.52 300.822 889.6 300.822 889.76C300.822 889.92 300.782 890 300.702 890C300.116 890 299.636 889.987 299.262 889.96L297.022 889.92L294.862 889.96C294.489 889.987 293.982 890 293.342 890ZM328.67 874.56C328.75 874.56 328.79 874.64 328.79 874.8C328.79 874.96 328.75 875.04 328.67 875.04C328.003 875.04 327.43 875.28 326.95 875.76C326.47 876.24 326.016 877.027 325.59 878.12L320.71 891.12C319.723 893.707 318.79 895.72 317.91 897.16C317.056 898.627 316.163 899.667 315.23 900.28C314.323 900.92 313.27 901.24 312.07 901.24C311.483 901.24 311.003 901.107 310.63 900.84C310.23 900.573 310.03 900.187 310.03 899.68C310.03 899.307 310.15 899.013 310.39 898.8C310.63 898.587 310.923 898.48 311.27 898.48C311.616 898.48 311.91 898.52 312.15 898.6C312.39 898.68 312.643 898.813 312.91 899C312.963 899.027 313.11 899.107 313.35 899.24C313.616 899.373 313.936 899.44 314.31 899.44C314.95 899.44 315.55 899.16 316.11 898.6C316.696 898.04 317.31 897.093 317.95 895.76C318.616 894.453 319.39 892.64 320.27 890.32L314.19 877.88C313.576 876.707 313.11 875.947 312.79 875.6C312.47 875.227 312.056 875.04 311.55 875.04C311.496 875.04 311.47 874.96 311.47 874.8C311.47 874.64 311.496 874.56 311.55 874.56L312.91 874.6C313.23 874.627 313.67 874.64 314.23 874.64L316.79 874.6C317.163 874.573 317.683 874.56 318.35 874.56C318.403 874.56 318.43 874.64 318.43 874.8C318.43 874.96 318.403 875.04 318.35 875.04C316.803 875.04 316.03 875.347 316.03 875.96C316.03 876.12 316.096 876.333 316.23 876.6L321.51 887.44L324.71 878.24C324.923 877.6 325.03 877.093 325.03 876.72C325.03 876.107 324.79 875.68 324.31 875.44C323.83 875.173 323.043 875.04 321.95 875.04C321.896 875.04 321.87 874.96 321.87 874.8C321.87 874.64 321.896 874.56 321.95 874.56C322.67 874.56 323.216 874.573 323.59 874.6L325.99 874.64L327.43 874.6C327.696 874.573 328.11 874.56 328.67 874.56ZM338.053 890.52C336.506 890.52 335.133 890.147 333.933 889.4C332.759 888.627 331.853 887.6 331.213 886.32C330.573 885.013 330.253 883.6 330.253 882.08C330.253 880.347 330.666 878.88 331.493 877.68C332.346 876.453 333.426 875.547 334.733 874.96C336.066 874.347 337.413 874.04 338.773 874.04C340.346 874.04 341.719 874.427 342.893 875.2C344.066 875.973 344.959 877 345.573 878.28C346.213 879.533 346.533 880.867 346.533 882.28C346.533 883.933 346.146 885.387 345.373 886.64C344.599 887.867 343.559 888.827 342.253 889.52C340.973 890.187 339.573 890.52 338.053 890.52ZM339.213 889.76C340.679 889.76 341.813 889.24 342.613 888.2C343.413 887.16 343.813 885.56 343.813 883.4C343.813 881.747 343.533 880.267 342.973 878.96C342.439 877.653 341.693 876.64 340.733 875.92C339.773 875.173 338.679 874.8 337.453 874.8C336.013 874.8 334.893 875.32 334.092 876.36C333.319 877.4 332.933 878.893 332.933 880.84C332.933 882.467 333.199 883.96 333.733 885.32C334.266 886.68 335.013 887.76 335.973 888.56C336.933 889.36 338.013 889.76 339.213 889.76ZM367.433 887.72C367.54 887.72 367.606 887.787 367.633 887.92C367.686 888.027 367.66 888.107 367.553 888.16L362.873 890.36L362.713 890.4C362.446 890.4 362.193 890.093 361.953 889.48C361.713 888.867 361.593 888.067 361.593 887.08V886.92C360.553 888.093 359.513 888.96 358.473 889.52C357.433 890.053 356.353 890.32 355.233 890.32C353.9 890.32 352.86 889.907 352.113 889.08C351.366 888.227 350.993 887 350.993 885.4V879.28C350.993 878.24 350.9 877.493 350.713 877.04C350.526 876.56 350.22 876.32 349.793 876.32C349.42 876.32 348.966 876.453 348.433 876.72H348.393C348.286 876.72 348.206 876.653 348.153 876.52C348.1 876.36 348.126 876.267 348.233 876.24L352.673 874.24L352.833 874.2C352.913 874.2 352.993 874.24 353.073 874.32C353.18 874.373 353.233 874.44 353.233 874.52V884.08C353.233 887.173 354.353 888.72 356.593 888.72C357.446 888.72 358.313 888.507 359.193 888.08C360.073 887.627 360.873 887.013 361.593 886.24V879.28C361.593 878.213 361.5 877.453 361.313 877C361.153 876.547 360.846 876.32 360.393 876.32C360.02 876.32 359.566 876.453 359.033 876.72H358.993C358.886 876.72 358.806 876.653 358.753 876.52C358.726 876.36 358.766 876.267 358.873 876.24L363.313 874.24L363.433 874.2C363.513 874.2 363.593 874.24 363.673 874.32C363.78 874.373 363.833 874.44 363.833 874.52V885.72C363.833 886.627 363.94 887.28 364.153 887.68C364.366 888.08 364.726 888.28 365.233 888.28C365.686 888.28 366.393 888.093 367.353 887.72H367.433ZM378.68 874.2C379.266 874.2 379.826 874.36 380.36 874.68C380.893 875 381.16 875.387 381.16 875.84C381.16 876.187 381.04 876.48 380.8 876.72C380.586 876.96 380.266 877.08 379.84 877.08C379.6 877.08 379.386 877.04 379.2 876.96C379.04 876.853 378.84 876.707 378.6 876.52C378.36 876.307 378.133 876.147 377.92 876.04C377.706 875.933 377.453 875.88 377.16 875.88C376.813 875.88 376.44 876.027 376.04 876.32C375.666 876.613 375.066 877.24 374.24 878.2V886.76C374.24 887.56 374.333 888.147 374.52 888.52C374.733 888.893 375.106 889.16 375.64 889.32C376.173 889.453 377 889.52 378.12 889.52C378.226 889.52 378.28 889.6 378.28 889.76C378.28 889.92 378.226 890 378.12 890C377.266 890 376.586 889.987 376.08 889.96L373.12 889.92L370.92 889.96C370.573 889.987 370.093 890 369.48 890C369.4 890 369.36 889.92 369.36 889.76C369.36 889.6 369.4 889.52 369.48 889.52C370.2 889.52 370.733 889.453 371.08 889.32C371.426 889.16 371.653 888.893 371.76 888.52C371.893 888.147 371.96 887.56 371.96 886.76V878.84C371.96 877.933 371.853 877.28 371.64 876.88C371.426 876.48 371.066 876.28 370.56 876.28C370.133 876.28 369.413 876.48 368.4 876.88H368.32C368.213 876.88 368.133 876.827 368.08 876.72C368.053 876.587 368.093 876.493 368.2 876.44L372.84 874.24L373.08 874.2C373.32 874.2 373.573 874.507 373.84 875.12C374.106 875.733 374.24 876.52 374.24 877.48V877.52C375.333 876.24 376.2 875.373 376.84 874.92C377.48 874.44 378.093 874.2 378.68 874.2ZM386.29 877C386.29 877.933 386.597 878.68 387.21 879.24C387.823 879.773 388.717 880.347 389.89 880.96C390.823 881.44 391.543 881.853 392.05 882.2C392.583 882.547 393.037 883 393.41 883.56C393.783 884.12 393.97 884.8 393.97 885.6C393.97 886.96 393.463 888.107 392.45 889.04C391.437 889.973 390.063 890.44 388.33 890.44C386.917 890.44 385.637 890.04 384.49 889.24C384.33 889.133 384.25 888.973 384.25 888.76L384.17 885.64C384.17 885.56 384.237 885.52 384.37 885.52C384.53 885.493 384.623 885.52 384.65 885.6C385.157 886.933 385.81 887.947 386.61 888.64C387.437 889.333 388.383 889.68 389.45 889.68C390.33 889.68 390.997 889.467 391.45 889.04C391.903 888.613 392.103 887.987 392.05 887.16C392.023 886.147 391.703 885.373 391.09 884.84C390.503 884.28 389.61 883.707 388.41 883.12C387.53 882.693 386.823 882.307 386.29 881.96C385.783 881.613 385.343 881.16 384.97 880.6C384.623 880.04 384.45 879.347 384.45 878.52C384.45 877.08 384.983 875.987 386.05 875.24C387.143 874.467 388.423 874.08 389.89 874.08C390.957 874.08 391.93 874.28 392.81 874.68C392.97 874.733 393.063 874.8 393.09 874.88C393.143 874.933 393.17 875.013 393.17 875.12C393.17 875.653 393.157 876.067 393.13 876.36L393.09 878.04C393.09 878.093 393.01 878.12 392.85 878.12C392.69 878.12 392.61 878.093 392.61 878.04C392.61 877.48 392.397 876.96 391.97 876.48C391.543 875.973 391.01 875.573 390.37 875.28C389.73 874.987 389.09 874.84 388.45 874.84C387.783 874.84 387.25 875.027 386.85 875.4C386.477 875.747 386.29 876.28 386.29 877Z" fill="#393535"/>
<path d="M1215 264.498C1215 403.674 1447.01 692 1167 692C886.992 692 94.5 151.674 94.5 12.498C94.5 -126.678 427.992 12.4979 708 12.4979C988.008 12.4979 1215 125.322 1215 264.498Z" fill="#EAE8C0"/>
<path d="M1280 156C1280 295.176 1418.01 566.5 1138 566.5C857.992 566.5 195 123.176 195 -15.9999C195 -155.176 492.992 -95.9999 773 -95.9999C1053.01 -95.9999 1280 16.8244 1280 156Z" fill="#E7E97E"/>
<path d="M1351 47.4982C1351 186.674 1489.01 457.998 1209 457.998C928.992 457.998 266 14.6739 266 -124.502C266 -263.678 563.992 -204.502 844 -204.502C1124.01 -204.502 1351 -91.6776 1351 47.4982Z" fill="#EBC67D"/>
<path d="M1426 -72.5018C1426 66.6739 1564.01 337.998 1284 337.998C1003.99 337.998 341 -105.326 341 -244.502C341 -383.678 638.992 -324.502 919 -324.502C1199.01 -324.502 1426 -211.678 1426 -72.5018Z" fill="#FFEE93"/>
</g>
<defs>
<clipPath id="clip0_101_2">
<rect width="1180" height="1109" fill="white"/>
</clipPath>
</defs>
</svg>
