<svg width="430" height="932" viewBox="0 0 430 932" fill="none" xmlns="http://www.w3.org/2000/svg">
<rect width="430" height="932" fill="#CC7043"/>
<path d="M263.587 812.172C263.325 812.14 263.063 812.172 262.802 812.172C260.903 812.336 259.037 812.729 257.171 813.023C255.076 813.351 252.981 813.416 250.854 813.482C250.33 813.482 250.559 813.22 250.657 812.991C250.494 812.958 250.297 812.827 250.133 812.893C250.297 812.794 250.494 812.925 250.657 812.991C251.443 812.5 251.868 811.714 252.49 811.092C253.014 810.568 253.276 809.913 253.341 809.16C253.407 808.669 253.21 808.407 252.719 808.407C252.359 808.374 252.065 808.505 251.737 808.669C250.657 809.324 249.708 810.175 248.89 811.092C248.628 811.387 248.399 811.747 248.137 812.041C247.809 812.401 248.038 812.86 247.94 813.253C247.842 813.351 247.744 813.449 247.646 813.547C246.304 813.384 244.929 813.58 243.587 813.449C243.161 813.416 242.703 813.351 242.277 813.515C242.31 813.58 242.343 813.613 242.375 813.678C242.343 813.646 242.31 813.58 242.277 813.515C242.179 813.515 242.048 813.482 241.95 813.449C241.459 813.384 240.968 813.351 240.477 813.285C240.182 813.253 240.215 813.089 240.346 812.925C240.51 812.925 240.575 812.827 240.673 812.729C240.935 812.696 241.132 812.598 241.132 812.303C241.295 812.205 241.524 812.172 241.623 811.976C241.721 811.976 241.753 811.91 241.786 811.845C242.179 811.354 242.474 810.83 242.506 810.175C242.539 809.586 242.179 809.226 241.623 809.258C241.361 809.258 241.099 809.357 240.87 809.455C240.084 809.815 239.364 810.273 238.807 810.928C238.12 811.747 237.138 812.238 236.549 813.122C236.418 813.318 236.189 813.285 235.992 813.285C235.37 813.253 234.748 813.22 234.126 813.253C232.784 813.351 231.409 813.187 230.067 813.253C229.936 813.253 229.805 813.253 229.74 813.089C229.675 812.958 229.805 812.86 229.871 812.762C230.1 812.434 230.591 812.434 230.722 812.009C230.788 811.976 230.853 811.943 230.853 811.878C231.442 811.55 231.475 811.026 231.442 810.437C231.442 810.306 231.409 810.175 231.311 810.11C231.213 809.782 231.049 809.553 230.689 809.52C230.657 809.488 230.591 809.488 230.558 809.488C230.427 809.357 230.329 809.357 230.198 809.488C230.035 809.52 229.904 809.52 229.74 809.553C229.642 809.52 229.609 809.586 229.576 809.651C229.511 809.651 229.478 809.651 229.445 809.717C229.053 809.848 228.627 809.946 228.365 810.306C227.776 810.339 227.547 810.895 227.154 811.223C227.121 811.288 227.121 811.321 227.089 811.387C226.728 811.517 226.532 811.779 226.499 812.172C226.467 812.205 226.434 812.238 226.434 812.303C226.237 812.434 226.172 812.631 226.172 812.827C226.172 813.122 226.008 813.22 225.746 813.253C225.583 813.253 225.419 813.285 225.288 813.285C222.833 813.285 220.378 813.285 217.923 813.285C217.432 813.285 216.941 813.253 216.45 813.253C216.352 813.253 216.254 813.22 216.221 813.089C216.221 812.991 216.221 812.86 216.352 812.827C217.072 812.565 217.432 811.845 217.988 811.387C218.479 810.961 218.741 810.372 218.807 809.684C218.84 809.324 218.709 809.128 218.381 809.095C218.25 809.062 218.119 809.062 217.988 809.029C217.759 808.833 217.53 808.702 217.236 808.898C217.039 808.833 216.875 808.964 216.745 809.095C216.45 809.062 216.319 809.258 216.319 809.52L216.254 809.553C216.155 809.52 216.123 809.586 216.09 809.651C215.992 809.717 215.893 809.815 215.795 809.881C215.272 809.815 215.304 810.306 215.075 810.568C215.042 810.568 215.01 810.601 214.977 810.634C214.453 810.797 214.486 811.387 214.159 811.681C214.06 811.714 214.028 811.747 214.028 811.845C213.995 812.009 213.897 812.172 213.766 812.27C213.569 812.401 213.504 812.631 213.504 812.86C213.177 813.22 212.784 813.285 212.325 813.253C212.064 813.22 211.769 813.154 211.507 813.318C211.442 813.318 211.343 813.285 211.278 813.285C211.114 813.285 210.918 813.285 210.721 813.285C210.427 813.253 210.165 813.253 209.87 813.22C209.641 813.22 209.412 813.056 209.248 813.351H209.216H209.15H209.085L209.052 813.416C208.987 813.318 208.921 813.285 208.79 813.318C208.528 813.318 208.266 813.318 208.005 813.318C207.841 813.318 207.677 813.318 207.546 813.285C207.481 813.285 207.448 813.285 207.383 813.285C206.597 813.056 205.811 813.318 204.993 813.285C204.469 813.285 204.633 813.056 204.698 812.794C204.895 812.598 205.124 812.434 205.32 812.238C205.386 812.238 205.418 812.205 205.418 812.14C205.811 811.747 206.27 811.387 206.564 810.863C207.022 809.979 206.531 809.16 206.433 808.309C206.401 807.949 205.942 807.916 205.517 808.145C205.222 808.309 205.124 808.669 204.862 808.767C204.011 809.128 203.52 809.946 202.832 810.503C202.211 810.961 201.916 811.681 201.785 812.434C201.654 813.187 201.523 813.253 200.738 813.285C200.41 813.285 200.05 813.285 199.723 813.285C198.315 813.318 196.908 813.515 195.5 813.449C194.944 813.416 194.387 813.482 193.831 813.646C193.798 813.613 193.765 813.613 193.732 813.646C193.634 813.58 193.503 813.58 193.405 813.613C193.34 813.613 193.307 813.613 193.241 813.613C193.045 813.515 192.554 813.875 192.718 813.285L192.75 813.253C192.783 813.22 192.849 813.187 192.881 813.154C193.372 813.023 193.438 812.565 193.7 812.238C193.765 812.205 193.831 812.14 193.863 812.107C193.962 812.009 193.962 811.878 193.962 811.747C194.583 810.666 194.583 810.666 193.798 810.077C193.732 809.946 193.634 809.881 193.471 809.881C192.619 809.619 191.703 810.044 191.212 810.961C191.179 810.961 191.146 810.994 191.146 811.059C190.983 811.026 190.852 811.092 190.852 811.288L190.819 811.321C190.328 811.55 189.772 812.238 189.542 812.827C189.477 812.827 189.411 812.893 189.411 812.958C189.182 813.253 188.953 813.515 188.757 813.809C188.462 813.875 188.168 813.94 187.84 813.94C186.596 814.006 185.352 814.137 184.109 814.202C182.93 814.268 181.719 814.268 180.54 814.3C180.082 814.3 180.049 814.235 180.246 813.809C180.475 813.351 180.966 813.023 181.064 812.5C181.097 812.467 181.162 812.401 181.195 812.369C181.261 812.336 181.326 812.336 181.359 812.303C181.817 812.27 181.752 811.91 181.752 811.616C181.784 811.583 181.817 811.517 181.85 811.485C182.341 810.895 182.341 810.634 181.85 810.208C181.817 810.011 181.719 809.881 181.523 809.815C180.77 809.586 179.624 810.208 179.395 811.026L179.362 811.059C179.166 811.026 179.035 811.059 178.904 811.223C178.642 811.55 178.347 811.845 178.216 812.27C178.02 812.369 177.987 812.565 177.889 812.729C177.791 812.762 177.758 812.827 177.758 812.925C177.725 812.958 177.725 812.991 177.725 813.056C177.693 813.122 177.627 813.187 177.594 813.253C177.463 813.318 177.463 813.449 177.431 813.58C177.136 813.646 177.169 813.842 177.234 814.071C177.202 814.169 177.136 814.235 177.103 814.333C176.94 814.399 176.809 814.497 176.874 814.726L176.842 814.791C175.925 814.89 174.976 814.988 174.059 815.053C172.619 815.119 171.211 815.217 169.804 815.479C169.378 815.544 168.92 815.643 168.527 815.348C168.92 814.89 169.116 814.366 169.247 813.776C169.378 813.646 169.411 813.482 169.411 813.318C169.509 813.023 169.575 812.729 169.673 812.434C169.804 812.041 169.607 811.779 169.313 811.583C168.854 811.288 168.265 811.288 167.807 811.747C166.956 812.565 166.072 813.416 165.712 814.595C165.614 814.89 165.483 815.184 165.286 815.413C165.123 815.643 164.861 815.774 165.09 816.101C165.254 816.33 165.024 816.625 165.221 816.919C165.679 817.64 166.236 818.196 166.923 818.655C167.807 819.211 168.723 819.702 169.64 820.161C170.164 820.423 170.72 820.521 171.309 820.488C171.8 820.455 172.291 819.44 171.964 819.08C171.375 818.491 170.949 817.672 170.098 817.378C169.836 817.181 169.607 816.985 169.28 816.919C169.444 816.658 169.673 816.756 169.902 816.756C171.44 816.723 172.979 816.658 174.485 816.428H174.517L174.55 816.494L174.583 816.428C174.648 816.396 174.714 816.396 174.779 816.363C175.074 816.428 175.401 816.428 175.696 816.363C176.089 816.297 176.449 816.232 176.842 816.297C176.907 816.658 177.103 816.887 177.333 817.149C177.889 817.705 178.609 818.065 179.264 818.458C180.213 819.048 181.195 819.604 182.177 820.128C182.897 820.488 183.126 820.357 183.487 819.637C183.519 819.571 183.552 819.506 183.585 819.44C183.912 818.753 183.814 818.262 183.192 817.803C182.766 817.476 182.275 817.214 181.85 816.854C181.424 816.527 180.868 816.396 180.41 815.905C181.261 815.872 182.014 815.774 182.766 815.774C184.01 815.806 185.254 815.61 186.498 815.577C187.087 815.577 187.709 815.643 188.266 815.413C188.429 815.446 188.593 815.479 188.724 815.381C189.019 815.479 189.444 815.217 189.641 815.61C190.066 816.461 190.917 816.789 191.703 817.149C192.358 817.574 193.012 817.967 193.667 818.393C194.06 818.655 194.551 818.753 195.009 818.818C195.86 818.949 196.744 817.934 196.351 817.181C195.958 816.396 195.369 815.708 194.387 815.577C194.289 815.381 194.092 815.315 193.896 815.315L193.831 815.283C193.962 815.053 194.158 815.053 194.387 815.053C195.958 814.988 197.562 814.922 199.134 814.89C199.854 814.857 200.574 814.857 201.294 814.791C201.589 814.759 201.752 814.857 201.883 815.152C202.047 815.512 202.309 815.872 202.636 816.134C203.487 816.854 204.338 817.574 205.255 818.229C205.746 818.589 206.335 818.72 206.957 818.524C207.088 818.491 207.252 818.458 207.35 818.295C207.939 817.345 207.906 817.05 207.153 816.199C206.99 816.036 206.892 815.806 206.662 815.708C206.564 815.512 206.401 815.413 206.171 815.413C206.106 815.348 206.073 815.283 206.008 815.217C205.975 815.053 205.746 815.021 205.779 814.759C206.237 814.759 206.695 814.791 207.153 814.759C208.299 814.693 209.445 814.824 210.59 814.693C210.754 814.759 210.885 814.759 211.049 814.693C211.245 814.726 211.474 814.791 211.671 814.726C211.769 814.726 211.9 814.726 211.998 814.726C212.424 814.857 212.849 814.857 213.242 814.628C213.471 814.66 213.668 814.693 213.897 814.726C213.929 814.791 213.929 814.824 214.028 814.791C214.06 814.824 214.093 814.857 214.126 814.89C213.929 815.184 213.929 815.381 214.355 815.381C214.388 815.577 214.519 815.61 214.682 815.643C214.977 815.774 215.272 815.97 215.206 816.33C215.108 816.919 215.501 817.181 215.795 817.542C215.959 817.705 216.123 817.869 216.319 818.033C216.974 818.589 217.694 819.048 218.545 819.309C218.97 819.44 219.396 819.44 219.723 819.113C220.149 818.687 220.542 817.64 219.985 816.887C219.527 816.265 218.938 815.774 218.25 815.479C217.956 815.348 217.727 815.217 217.563 814.955C217.792 814.726 218.021 814.726 218.185 814.791C218.84 814.988 219.494 814.791 220.116 814.791C221.753 814.759 223.422 814.791 225.059 814.759C225.877 814.726 225.877 814.759 226.336 815.348C226.401 815.479 226.467 815.61 226.532 815.741C226.598 816.068 226.827 816.297 227.023 816.527C227.514 817.083 228.071 817.574 228.856 817.771L228.889 817.803C229.675 818.556 230.689 818.655 231.671 818.72C232.228 818.753 232.359 818.164 232.621 817.771C232.85 817.443 232.621 817.05 232.359 816.789C231.9 816.297 231.409 815.839 230.755 815.61C230.657 815.413 230.427 815.413 230.264 815.315C230.231 815.25 230.198 815.217 230.133 815.217L230.067 815.184C230.067 814.988 230.133 814.89 230.329 814.89C230.657 814.857 230.951 814.824 231.279 814.857C232.293 814.89 233.308 814.955 234.323 814.955C235.436 814.988 236.549 814.955 237.662 814.955C237.76 814.955 237.858 814.988 237.924 815.119C237.924 815.348 237.727 815.61 237.924 815.839C238.185 816.134 238.349 816.494 238.676 816.723C239.56 817.378 240.444 818.065 241.328 818.753C241.59 818.949 241.852 819.08 242.146 819.244C242.474 819.408 242.866 819.44 243.194 819.211C243.456 819.048 243.652 818 243.488 817.672C243.063 816.919 242.474 816.33 241.819 815.774C241.786 815.708 241.721 815.643 241.655 815.643C241.524 815.479 241.328 815.381 241.132 815.315C241.132 815.053 241.262 814.955 241.524 814.955C241.786 814.955 242.048 815.086 242.277 814.955C242.375 814.955 242.474 814.955 242.572 814.955C243.161 815.119 243.718 815.184 244.307 814.988C244.405 814.988 244.536 814.988 244.634 814.988C244.667 814.955 244.7 814.89 244.765 814.89C244.732 814.89 244.7 814.955 244.634 814.988C245.256 815.315 245.911 815.119 246.533 815.053C246.533 815.053 246.533 814.955 246.533 814.922L246.565 814.89C246.598 814.988 246.664 815.021 246.729 814.988C246.827 815.217 246.958 815.086 247.122 815.053C247.351 815.25 247.875 815.021 247.94 815.512C248.006 816.166 248.497 816.461 249.02 816.723C249.217 816.952 249.413 817.181 249.741 817.214C249.806 817.378 249.937 817.509 250.133 817.509C250.232 817.64 250.33 817.771 250.494 817.803C251.476 818.556 252.556 819.08 253.767 819.408C254.847 819.702 255.142 819.506 255.338 818.458C255.371 818.295 255.338 818.164 255.24 818.033C254.487 817.083 253.636 816.232 252.556 815.643C252.294 815.512 252.065 815.348 251.705 815.119C252.719 815.053 253.603 814.955 254.487 814.89C255.207 814.824 255.927 814.759 256.648 814.759C257.171 814.759 257.695 814.628 258.121 815.053C258.153 815.086 258.284 815.086 258.35 815.086C259.43 815.217 260.51 815.381 261.623 815.512C262.311 815.61 263.031 815.577 263.718 815.413C264.144 815.315 264.995 814.333 264.995 813.875C265.06 812.893 264.504 812.238 263.587 812.172ZM211.769 813.875C211.736 813.875 211.703 813.842 211.671 813.809C211.703 813.809 211.736 813.842 211.769 813.875ZM229.314 815.708C229.347 815.708 229.347 815.675 229.38 815.643C229.347 815.61 229.347 815.544 229.314 815.544C229.347 815.577 229.347 815.61 229.38 815.643C229.347 815.675 229.347 815.675 229.314 815.708ZM251.246 815.643C251.214 815.544 251.148 815.446 251.115 815.348C251.148 815.413 251.214 815.544 251.246 815.643C251.41 815.643 251.541 815.675 251.672 815.708C251.574 815.643 251.41 815.61 251.246 815.643ZM251.148 810.535C251.181 810.503 251.214 810.437 251.181 810.404C251.214 810.47 251.148 810.503 251.148 810.535ZM252.032 816.265C252.032 816.33 252.032 816.363 252.032 816.428C252.032 816.363 252.032 816.297 252.032 816.265Z" fill="white" fill-opacity="0.4"/>
</svg>
