<svg width="377" height="765" viewBox="0 0 377 765" fill="none" xmlns="http://www.w3.org/2000/svg">
<path d="M137.386 485.477C130.85 484.975 130.348 480.449 129.845 475.42C134.37 477.432 135.375 481.455 137.386 485.477Z" fill="#252624"/>
<path d="M46.3818 463.856C46.8846 464.359 47.3876 464.862 47.8904 465.364C46.8849 465.364 46.3818 464.862 46.3818 463.856Z" fill="#252624"/>
<path d="M164.033 540.291C163.53 539.788 162.524 539.788 162.021 539.285C162.021 538.782 162.525 537.777 162.525 537.274C163.028 537.777 164.033 537.777 164.535 538.28C165.038 538.782 164.536 539.285 164.033 540.291Z" fill="#252624"/>
<path d="M109.229 475.923C108.727 476.426 108.224 477.432 107.722 477.432C106.213 477.432 105.71 476.426 106.213 475.42C106.213 474.917 107.219 474.415 107.722 474.415C108.727 474.415 108.727 475.42 109.229 475.923Z" fill="#252624"/>
<path d="M104.202 465.868C104.704 466.371 105.208 466.874 105.208 467.88C105.208 468.382 104.704 468.885 104.202 469.388C103.699 468.885 103.196 468.382 103.196 467.377C103.196 466.874 104.202 466.371 104.202 465.868Z" fill="#252624"/>
<path d="M146.436 317.02C141.911 317.02 137.386 316.517 133.363 316.517C120.794 317.02 111.241 310.483 103.197 301.934C78.0574 274.277 54.9297 244.608 36.8296 212.425C25.2656 192.31 16.215 171.19 11.1872 148.059C6.15938 125.43 6.66229 102.801 15.7124 80.6751C22.7513 63.5778 36.3263 57.5435 53.9237 63.5779C64.4821 67.0979 75.0406 70.1151 83.5879 78.1608C86.1018 73.6351 86.1022 69.1093 87.1078 64.5836C92.1356 47.4863 100.683 32.9033 117.275 24.8575C129.844 18.3203 142.917 20.8346 154.983 26.869C167.553 32.9033 174.089 43.4634 177.105 56.035C178.614 62.5722 181.128 64.0808 187.664 62.5722C210.792 56.5378 227.384 71.1208 233.417 89.2239C235.931 97.2696 240.456 104.31 241.964 112.858C247.495 142.527 247.997 172.196 242.467 201.362C238.947 219.968 230.4 237.568 220.848 254.665C214.311 266.734 208.781 279.808 198.725 289.866C187.161 301.431 174.592 310.986 158.503 315.009C154.48 314.506 149.955 312.997 146.436 317.02Z" fill="#201F1F"/>
<path d="M46.3824 463.856C45.3768 461.844 43.8687 460.336 42.8631 458.324C42.3604 457.822 41.3547 456.816 40.8519 456.313C39.3435 454.804 38.3379 453.296 38.8406 451.284C42.8629 447.261 37.3325 443.741 37.8353 439.718C39.8464 439.216 41.8573 439.719 41.3545 436.701C41.3545 436.199 40.8519 436.198 40.8519 435.696C38.338 435.696 38.3381 437.707 37.8353 439.216C35.8242 440.221 34.316 441.227 32.3048 442.233C31.8021 441.227 31.2989 439.719 31.2989 438.713C32.8073 435.193 36.8299 431.673 32.3048 428.153C29.7909 426.141 24.7631 425.638 32.3048 424.13C35.3215 423.627 33.8131 420.61 32.8075 419.604C27.7797 411.055 22.2492 402.507 17.2214 393.958C17.2214 393.455 16.7182 393.455 16.2154 393.455C15.7127 388.93 17.7243 384.907 19.2326 380.884C27.2771 358.255 51.4107 358.255 64.483 370.827C77.5553 383.398 86.1024 398.987 95.6552 414.073C101.186 422.621 105.711 432.176 110.739 441.227C110.236 458.324 112.247 462.347 126.827 468.382C127.833 470.393 128.839 472.907 130.347 474.919C130.85 479.445 131.353 484.473 137.889 484.976C136.883 493.525 133.867 501.57 142.917 508.108C145.431 510.119 148.447 511.125 150.961 512.633C153.978 514.645 156.995 518.668 155.486 521.685C153.475 525.708 149.956 522.188 147.442 520.679C145.934 519.673 144.425 519.171 143.42 520.679C142.414 522.691 143.42 524.199 144.928 525.708C150.459 530.234 156.995 529.731 163.531 530.234C174.089 531.742 179.117 527.719 183.139 519.171C191.184 511.125 194.201 500.062 200.234 490.508C208.781 477.433 217.328 463.353 226.881 450.781C234.423 440.724 242.97 431.17 253.529 424.13C263.585 417.09 274.646 413.067 286.712 413.067C301.293 413.067 305.315 424.13 307.326 436.701C310.343 453.799 302.802 467.879 293.249 480.953C287.215 489.502 282.187 498.553 274.646 505.593C264.59 515.148 255.54 525.708 245.987 535.262C240.457 540.794 233.92 545.822 228.39 551.354C219.34 559.902 209.787 567.948 198.223 572.474C189.676 575.994 184.145 584.04 176.603 589.571C173.586 589.571 172.078 587.56 171.073 585.548C165.542 576.497 157.497 569.457 149.453 563.422C128.336 547.834 109.733 529.731 91.1301 511.628C75.5438 497.045 61.9687 480.953 48.3936 464.862C47.3881 464.862 46.8851 464.359 46.3824 463.856ZM71.5215 430.164C71.0187 432.176 68.505 433.684 70.5161 435.193C72.0245 436.198 73.5326 434.187 74.0354 433.181C76.0465 430.667 74.0354 430.164 71.5215 430.164C72.527 427.65 68.505 424.633 73.0301 422.621C77.5551 421.113 77.0524 418.095 75.0413 415.078C73.0302 412.061 72.0242 408.038 69.0076 406.027C62.4714 402.004 58.9522 395.969 55.4327 389.432C52.9188 390.941 53.4213 392.45 53.9241 393.958C54.9297 399.49 49.9018 405.021 53.9241 410.05C56.9408 414.575 63.9797 417.09 61.4658 424.633C61.4658 425.135 63.9801 426.644 64.9857 427.147C66.9968 428.655 69.5103 429.158 71.5215 430.164ZM79.5665 427.65C80.0692 432.176 75.0409 436.199 79.0632 441.73C84.091 447.764 88.1136 454.302 97.6665 456.313C94.147 444.244 85.5998 436.701 79.5665 427.65ZM41.3545 423.627C42.8629 416.587 41.3548 410.05 35.3214 403.513C35.3214 412.061 35.3212 418.598 41.3545 423.627ZM64.483 439.216C64.483 437.707 63.9801 436.701 62.4718 436.701C59.9578 437.204 57.9466 438.21 57.9466 441.227C57.9466 442.736 58.4495 443.741 59.9578 443.741C62.9745 443.741 63.4774 441.227 64.483 439.216ZM164.033 540.291C164.536 539.788 165.039 538.782 164.536 538.279C164.536 537.777 163.531 537.777 162.525 537.274C162.023 537.777 161.519 538.782 162.022 539.285C162.525 539.788 163.531 539.788 164.033 540.291ZM109.23 475.925C108.727 475.422 108.728 474.416 108.225 474.416C107.722 474.416 106.716 474.919 106.716 475.422C106.213 476.427 106.716 477.433 108.225 477.433C108.728 477.433 108.727 476.427 109.23 475.925ZM49.9022 385.912C49.3994 384.907 49.3991 384.404 48.8963 383.901C48.3935 384.907 47.3884 385.41 46.8856 386.415C46.3829 387.421 46.8853 388.93 48.3936 388.427C48.8964 387.924 49.3994 386.415 49.9022 385.912ZM104.202 465.867C103.7 466.37 103.197 466.873 103.197 467.376C103.197 467.879 103.7 468.382 104.202 469.387C104.705 468.885 105.208 468.382 105.208 467.879C105.208 466.873 104.705 466.37 104.202 465.867Z" fill="#272726"/>
<path d="M182.637 519.672C178.615 528.221 173.587 532.243 163.028 530.735C156.492 529.729 149.956 530.735 144.425 526.209C142.414 524.701 141.409 523.192 142.917 521.181C143.923 519.169 145.933 520.175 146.939 521.181C149.453 522.689 152.973 526.209 154.984 522.186C156.492 519.169 153.475 515.146 150.459 513.135C147.945 511.123 144.928 510.62 142.414 508.609C133.364 502.072 136.381 493.523 137.386 485.477C147.442 497.043 153.475 511.626 163.531 524.198C163.531 514.643 164.536 506.095 163.531 497.546C161.017 475.923 161.017 454.3 159.006 432.677C157.497 418.094 156.492 403.008 154.984 388.425C159.509 388.425 164.033 388.425 169.564 388.425C164.536 384.402 159.508 383.397 154.481 383.899C152.972 381.385 151.967 379.374 152.973 376.356C154.984 376.356 158.503 375.854 158 374.848C154.481 367.305 160.514 363.785 165.039 360.265C158.503 353.225 156.492 362.276 151.967 362.276C148.447 347.19 147.442 331.602 146.939 316.516C150.458 312.996 154.983 314.002 159.006 314.504C162.022 329.59 165.542 345.179 168.559 360.265C172.078 377.865 174.089 395.465 176.1 413.568C180.123 445.751 180.123 477.934 183.14 510.118C183.14 513.638 182.637 516.655 182.637 519.672ZM166.547 379.876C167.553 379.876 167.553 379.374 167.05 378.368C167.05 378.368 166.548 378.368 166.045 378.368C166.548 379.374 166.547 379.876 166.547 379.876Z" fill="#252624"/>
<path d="M16.2156 393.957C16.7184 393.957 17.2215 394.46 17.2215 394.46C22.2494 403.008 27.7798 411.557 32.8077 420.106C33.8132 421.614 35.3217 424.129 32.305 424.631C24.7633 426.14 29.2883 426.643 32.305 428.654C36.83 432.174 32.8074 435.695 31.2991 439.215C17.724 426.643 11.1878 412.06 16.2156 393.957Z" fill="#252624"/>
<path d="M126.324 468.883C112.246 462.849 109.733 458.826 110.235 441.729C117.274 450.277 123.307 458.826 126.324 468.883Z" fill="#252624"/>
<path d="M151.966 362.78C156.491 363.283 158.503 354.231 165.039 360.769C160.514 364.289 154.481 367.306 158 375.352C158.503 376.86 154.983 376.86 152.972 376.86C151.464 372.334 150.961 367.306 151.966 362.78Z" fill="#272726"/>
<path d="M153.978 384.403C159.005 383.9 164.033 384.906 169.061 388.929C163.53 388.929 159.005 388.929 154.48 388.929C154.48 387.42 154.48 385.911 153.978 384.403Z" fill="#272726"/>
<path d="M37.8352 439.718C37.3324 443.741 42.36 447.261 38.8405 451.284C34.8182 449.775 33.3103 446.255 32.3047 442.232C34.3158 441.729 36.3268 440.723 37.8352 439.718Z" fill="#252624"/>
<path d="M40.8516 456.312C41.3543 456.815 42.36 457.821 42.8628 458.324C41.3545 458.324 40.8516 457.821 40.8516 456.312Z" fill="#252624"/>
<path d="M71.5214 430.164C69.5103 429.158 66.9967 428.655 64.9856 427.649C63.4772 427.146 60.963 425.638 61.4658 425.135C63.9797 417.592 57.4435 415.078 53.924 410.552C49.9018 405.02 54.9296 399.489 53.924 394.46C53.4212 392.952 52.9187 391.443 55.4326 389.935C58.9521 396.472 62.4713 402.506 69.0075 406.529C71.5214 408.038 73.0301 412.061 75.0412 415.581C77.0524 418.598 77.555 421.615 73.03 423.123C68.5049 424.632 72.527 427.649 71.5214 430.164Z" fill="#252624"/>
<path d="M79.5661 427.651C85.5995 436.703 94.1465 444.246 98.1688 456.315C88.6159 454.303 84.0911 447.766 79.5661 441.732C75.041 436.2 80.0689 432.177 79.5661 427.651Z" fill="#252624"/>
<path d="M41.3544 423.626C35.321 418.095 35.8241 411.558 35.3213 403.512C41.3547 410.049 42.36 416.586 41.3544 423.626Z" fill="#252624"/>
<path d="M64.4827 439.215C63.9799 441.729 62.9742 443.74 59.9575 443.74C58.4492 443.74 57.9463 442.735 57.9463 441.226C57.9463 438.209 59.9575 437.203 62.4714 436.7C63.477 436.7 64.4827 437.706 64.4827 439.215Z" fill="#201F1F"/>
<path d="M72.0241 430.162C74.0353 430.665 76.5492 430.665 74.538 433.682C73.5325 434.688 72.0238 436.699 71.0182 435.694C68.5043 433.682 71.5213 432.174 72.0241 430.162Z" fill="#252624"/>
<path d="M37.835 439.718C38.3377 437.707 38.3376 435.695 40.8515 436.198C41.3543 436.198 41.3542 436.701 41.3542 437.204C41.857 439.718 39.8461 439.718 37.835 439.718Z" fill="#252624"/>
<path d="M49.9024 385.913C49.3997 386.416 48.8966 387.924 48.3938 387.924C46.8855 388.427 46.3831 386.918 46.8859 385.913C47.3886 384.907 48.3937 384.404 48.8965 383.398C49.3993 384.404 49.3997 384.907 49.9024 385.913Z" fill="#252624"/>
<path d="M166.548 379.879C166.548 379.376 166.548 379.376 166.045 378.873C166.548 378.873 167.05 378.37 167.05 378.873C168.056 379.879 167.553 380.381 166.548 379.879Z" fill="#272726"/>
<path d="M285.676 97.6161C281.459 102.678 278.928 108.795 276.186 114.701C272.601 122.294 267.961 129.255 263.533 136.427C260.58 141.278 258.26 146.551 255.097 151.191C251.934 156.043 249.825 161.527 246.028 165.956C243.287 169.331 237.593 169.542 234.008 167.011C227.259 161.738 221.776 155.621 216.503 149.082C210.809 141.7 205.959 133.684 201.319 125.458C194.149 113.225 189.087 100.147 184.87 86.6479C182.972 80.742 182.761 74.8361 183.183 68.7192C183.604 62.6024 186.557 57.962 191.618 55.22C196.891 52.267 202.585 50.7905 208.911 52.6888C219.034 55.6418 225.783 62.1805 231.688 70.4066C231.899 70.6175 232.11 70.8285 232.742 71.6722C235.695 66.399 237.171 60.4931 241.6 56.0636C245.818 51.8451 250.457 48.2594 256.151 46.361C260.58 45.7283 264.798 44.6736 269.649 46.1501C273.234 47.2047 276.186 48.2594 278.506 51.2124C279.139 52.0561 280.193 52.6888 281.037 53.5325C282.935 55.2199 284.622 57.1183 285.466 59.4385C287.785 65.1335 288.84 71.2503 289.051 76.9453C289.472 83.9059 287.996 90.8665 285.676 97.6161Z" fill="#D68134"/>
<path d="M285.677 97.6161C287.997 90.8664 289.262 83.9058 289.262 76.9453C289.051 71.0393 287.997 64.9225 285.677 59.4384C284.622 57.1182 283.146 55.2199 281.248 53.5325C280.405 52.6887 279.35 52.056 278.717 51.2123C276.397 48.2594 273.445 47.2047 269.86 46.15C265.009 44.6736 260.791 45.7282 256.363 46.361C255.519 41.5097 254.254 36.4474 253.832 31.5961C253.199 22.9482 254.254 14.933 258.893 7.1287C263.744 -0.886488 277.03 -3.83944 283.779 7.33964C286.731 12.1909 289.895 17.0423 293.058 21.6827C293.691 22.5264 294.113 23.7919 295.378 24.2137C296.432 24.0028 296.854 23.3701 297.276 22.7373C300.439 17.4641 305.501 13.8784 309.297 9.44891C309.719 9.02705 309.929 8.6052 310.351 8.39427C316.256 6.49594 322.161 2.91021 328.699 4.38669C333.55 5.44132 336.291 9.23797 337.978 13.4565C340.087 18.7296 340.509 24.6356 338.822 29.9088C335.237 40.666 331.651 51.6342 326.168 61.7586C322.583 68.5083 318.787 75.4688 315.834 82.4294C313.515 87.7025 310.984 92.9757 309.086 98.6707C307.821 102.678 303.603 102.889 301.072 104.998C300.65 105.209 299.596 104.577 298.752 104.155C297.698 103.311 296.643 102.256 295.589 101.624C293.269 100.358 291.371 97.616 287.997 99.0925C287.575 98.8816 286.52 98.0379 285.677 97.6161Z" fill="#F97838"/>
<path d="M1.875 631.45H17.85L41.925 714.4H38.025L62.325 639.85H72L96.45 713.575H92.85L119.475 631.45H135.525L102.15 727H87.15L66.525 665.8H68.55L47.475 727H32.55L1.875 631.45ZM191.832 727L190.032 710.425V680.35C190.032 674.45 188.807 670.175 186.357 667.525C183.907 664.825 180.032 663.475 174.732 663.475C171.732 663.475 169.057 663.925 166.707 664.825C164.407 665.675 162.582 666.975 161.232 668.725C159.932 670.475 159.282 672.675 159.282 675.325H143.532C143.532 670.025 144.832 665.725 147.432 662.425C150.032 659.125 153.657 656.725 158.307 655.225C163.007 653.675 168.482 652.9 174.732 652.9C180.582 652.9 185.732 653.875 190.182 655.825C194.632 657.725 198.082 660.725 200.532 664.825C203.032 668.925 204.282 674.225 204.282 680.725V727H191.832ZM167.682 728.95C161.632 728.95 156.607 727.9 152.607 725.8C148.607 723.65 145.607 720.85 143.607 717.4C141.657 713.95 140.682 710.275 140.682 706.375C140.682 701.625 141.882 697.725 144.282 694.675C146.732 691.575 150.107 689.275 154.407 687.775C158.707 686.275 163.657 685.525 169.257 685.525C173.107 685.525 176.857 685.875 180.507 686.575C184.157 687.275 187.757 688.2 191.307 689.35V697.975C188.407 696.925 185.182 696.1 181.632 695.5C178.132 694.85 174.857 694.525 171.807 694.525C167.257 694.525 163.457 695.425 160.407 697.225C157.357 699.025 155.832 702.075 155.832 706.375C155.832 709.525 157.032 712.25 159.432 714.55C161.832 716.8 165.632 717.925 170.832 717.925C174.632 717.925 177.982 717.075 180.882 715.375C183.782 713.625 186.032 711.45 187.632 708.85C189.232 706.25 190.032 703.65 190.032 701.05H193.482C193.482 706.05 192.457 710.675 190.407 714.925C188.407 719.125 185.482 722.525 181.632 725.125C177.782 727.675 173.132 728.95 167.682 728.95ZM231.422 727V624.475H245.672V727H231.422ZM274.928 727V624.475H289.178V727H274.928ZM306.959 654.85H322.934L344.684 714.55H341.759L359.234 654.85H373.784L346.409 740.875C343.909 748.675 340.684 754.5 336.734 758.35C332.834 762.25 327.934 764.2 322.034 764.2C318.734 764.2 315.559 763.775 312.509 762.925C309.509 762.075 306.434 760.825 303.284 759.175V746.35C305.984 748.25 308.584 749.625 311.084 750.475C313.584 751.325 316.184 751.75 318.884 751.75C321.584 751.75 323.884 750.925 325.784 749.275C327.734 747.675 329.359 745.525 330.659 742.825C332.009 740.175 333.159 737.275 334.109 734.125L336.284 727L306.959 654.85Z" fill="#201F1F"/>
</svg>
