<svg width="398" height="761" viewBox="0 0 398 761" fill="none" xmlns="http://www.w3.org/2000/svg">
<path d="M220.14 67.2096C220.732 68.3936 220.731 69.5776 221.323 71.3536C222.507 71.9456 223.099 72.5373 224.283 73.7213C248.55 83.7851 258.613 107.465 271.634 127.592C276.961 135.88 272.818 144.168 263.94 147.72C260.389 149.496 257.429 147.128 255.062 145.352C249.735 141.208 244.407 135.88 239.08 131.144C235.529 128.184 232.569 128.776 232.569 133.512C231.978 149.496 232.569 165.479 232.569 181.463C232.569 185.015 234.937 186.199 237.897 187.383C243.816 189.751 247.958 194.487 250.918 199.815C258.613 212.247 265.715 224.678 271.634 238.294C275.777 247.766 266.308 248.95 263.348 253.686C259.797 259.014 255.654 254.87 252.102 252.502C246.183 248.95 243.816 242.438 239.673 237.702C237.305 234.742 237.305 230.598 231.386 229.414C229.61 238.294 228.426 246.582 226.65 255.462C224.875 264.933 224.283 274.997 221.916 284.469C220.732 289.205 221.916 291.573 225.467 295.125C236.713 308.148 247.959 321.764 255.062 337.748C256.837 341.892 259.797 346.628 255.653 350.772C250.918 355.508 240.264 356.692 235.529 353.732C226.65 347.22 219.548 338.932 213.629 330.644C208.894 332.42 208.302 336.564 207.118 340.116C203.567 350.771 200.015 361.427 197.056 372.675C194.688 379.779 195.28 386.291 200.015 392.803C207.71 404.05 212.445 417.074 215.997 430.098C218.364 440.162 216.589 443.714 207.71 447.857C201.791 450.817 198.24 449.042 194.096 444.306C189.361 438.978 187.586 431.874 180.483 427.138C176.932 436.61 173.972 444.897 170.421 453.777C165.094 469.169 158.583 484.561 151.48 499.36C147.929 506.464 142.01 508.24 136.091 510.608C130.764 512.384 126.621 507.056 125.437 501.729C121.294 482.193 126.62 463.841 134.907 446.082C136.683 442.53 140.234 441.346 143.785 439.57C149.704 437.202 155.623 434.242 157.991 428.322C159.767 423.586 165.093 418.258 162.134 414.114C158.583 408.786 152.664 414.114 147.929 415.89C142.602 417.666 137.867 419.442 133.723 414.706C129.58 410.562 129.58 405.234 132.539 400.498C134.315 396.947 136.091 392.803 137.275 388.659C139.05 383.331 142.01 380.963 147.337 380.963C152.664 380.371 158.583 377.411 163.91 378.003C173.38 378.595 176.932 372.675 178.115 365.571C180.483 350.772 186.402 337.748 194.096 324.724C195.28 322.948 195.872 320.58 194.096 317.62C187.585 317.62 181.667 320.58 175.748 322.948C165.686 326.5 158.583 324.724 154.44 317.62C150.296 310.516 152.072 304.597 159.767 296.309C165.094 290.981 171.604 289.205 178.707 287.429C181.667 286.837 184.626 286.837 186.994 286.245C201.199 284.469 200.015 283.877 203.566 269.669C206.526 257.238 205.935 244.214 210.078 232.374C210.67 230.006 211.261 227.638 209.485 225.862C207.118 224.678 204.75 225.862 202.975 227.046C196.464 231.19 189.953 234.742 184.034 238.886C181.667 240.662 179.299 241.254 176.339 241.254C167.461 241.846 163.318 237.11 167.461 229.414C176.339 212.247 185.81 195.079 205.342 189.159C212.445 186.791 214.813 183.831 214.813 176.135C214.813 161.336 215.404 145.944 215.404 130.552C215.404 124.04 216.588 117.528 212.445 110.425C202.975 119.896 192.913 125.816 182.258 131.736C177.523 134.696 173.38 135.88 168.645 131.144C163.91 126.408 164.501 122.264 168.053 117.529C175.156 109.241 179.891 98.5848 189.362 91.4809C191.729 91.4809 193.504 90.2971 194.096 87.9291C198.831 86.1532 203.567 84.9691 205.934 79.6412C210.077 75.4973 210.078 70.7616 210.078 65.4337C211.262 64.8417 213.629 64.2498 213.629 63.6578C213.629 54.778 215.997 58.3298 218.956 62.4738C217.772 65.4337 218.956 66.6176 220.14 67.2096Z" fill="white"/>
<path d="M220.14 67.2082C218.956 66.0243 217.773 65.4323 217.181 64.2483C214.221 60.1044 211.854 56.5525 211.854 65.4324C211.854 66.0243 209.486 66.6163 208.302 67.2082C204.159 63.6563 202.975 58.9205 201.792 53.5926C197.648 37.6089 193.505 22.2173 186.994 7.41765C185.81 5.0497 185.219 2.68153 186.994 0.905569C189.362 -0.870393 191.137 0.313799 193.505 1.49777C196.464 3.86572 199.424 5.64161 201.2 9.19354C209.486 26.3612 216.589 44.7126 221.916 63.0643C222.508 65.4322 221.324 66.6163 220.14 67.2082Z" fill="white"/>
<path d="M204.159 81.416C202.384 86.7439 197.057 87.9277 192.321 89.7036C193.505 83.1918 198.832 82.6 204.159 81.416Z" fill="white"/>
<path d="M192.321 89.7002C191.729 92.0681 189.954 93.2523 187.586 93.2523C188.178 90.8844 189.954 90.2922 192.321 89.7002Z" fill="white"/>
<path d="M223.691 73.1269C222.507 72.5349 221.915 71.9428 220.732 70.7588C222.507 71.3508 223.691 71.9429 223.691 73.1269Z" fill="white"/>
<path d="M2.87598 590.497L2.69043 586.693L11.4111 587.064C19.6989 587.312 24.9561 587.436 27.1826 587.436C34.2952 587.436 39.6761 587.312 43.3252 587.064H50.0049L50.376 590.683C46.7269 590.93 43.2633 591.672 39.9854 592.909C36.7692 594.146 35.1611 595.878 35.1611 598.104C35.1611 600.455 37.5114 608.402 42.2119 621.947C46.9743 635.43 52.0459 649.223 57.4268 663.324C62.8695 677.364 65.7764 684.693 66.1475 685.312L69.9512 675.385C70.3223 674.643 71.3118 672.292 72.9199 668.334C74.5898 664.376 75.8577 661.345 76.7236 659.242L92.8662 623.153C88.1657 612.268 85.1042 605.279 83.6816 602.187C82.321 599.032 81.2695 597.022 80.5273 596.156C78.2389 593.002 74.7754 591.301 70.1367 591.054L69.7656 587.25C73.9714 587.497 78.2699 587.621 82.6611 587.621C93.9176 587.621 104.061 587.312 113.091 586.693L113.276 589.94C108.885 590.435 105.638 591.116 103.535 591.981C101.432 592.847 100.133 593.744 99.6387 594.672C99.2057 595.538 98.9893 596.62 98.9893 597.919C98.9893 600.022 100.938 606.949 104.834 618.7C108.792 630.451 113.462 643.563 118.843 658.036C124.285 672.509 127.873 681.724 129.604 685.683C134.181 674.364 138.696 662.52 143.149 650.15C147.664 637.781 151.221 627.297 153.818 618.7C156.416 610.103 157.715 604.506 157.715 601.908C157.715 596.898 155.983 593.744 152.52 592.445C149.056 591.085 144.819 590.312 139.81 590.126L139.067 587.064H148.994C157.282 587.25 166.528 587.188 176.733 586.879L184.155 586.693L183.877 589.94C180.042 590.312 176.857 591.332 174.321 593.002C171.847 594.672 169.528 597.486 167.363 601.444C165.199 605.403 162.725 611.186 159.941 618.793L141.572 669.911C138.48 678.261 136.624 683.147 136.006 684.569C134.769 687.662 133.748 690.383 132.944 692.733C132.14 695.084 131.213 697.805 130.161 700.897C129.11 703.99 127.904 707.577 126.543 711.659L123.667 711.474C121.935 706.278 120.203 700.959 118.472 695.517C116.74 690.074 115.225 685.404 113.926 681.508C112.627 677.549 111.637 674.704 110.957 672.973L95.3711 630.204C94.5052 632.06 93.3919 634.472 92.0312 637.44C90.6706 640.409 89.6191 642.605 88.877 644.027L79.043 666.293C76.569 671.798 74.4661 676.869 72.7344 681.508C71.0645 686.146 69.2708 691.28 67.3535 696.908C65.498 702.536 63.89 707.453 62.5293 711.659H60.0244L49.1699 680.395C47.6237 675.632 45.6445 669.757 43.2324 662.768C40.8822 655.717 38.099 647.676 34.8828 638.646C31.7285 629.617 28.7907 621.638 26.0693 614.711C23.4098 607.784 21.307 602.929 19.7607 600.146C17.5342 595.94 15.0602 593.28 12.3389 592.167C9.67936 591.054 6.52507 590.497 2.87598 590.497ZM184.434 651.264L173.022 656.366C172.528 654.387 172.28 652.934 172.28 652.006C172.28 648.852 174.198 645.945 178.032 643.285C181.929 640.564 186.289 638.368 191.113 636.698C195.999 635.028 199.401 634.193 201.318 634.193C202.988 634.193 205.06 634.936 207.534 636.42C210.008 637.904 211.987 639.389 213.472 640.873C214.771 642.11 215.76 643.347 216.44 644.584C217.183 645.759 217.832 647.646 218.389 650.243C218.945 652.841 219.224 656.15 219.224 660.17C219.224 661.345 219.069 665.489 218.76 672.602L218.389 679.56C218.141 682.899 218.018 685.559 218.018 687.538C218.018 690.074 218.358 692.795 219.038 695.702C219.657 698.671 221.048 700.155 223.213 700.155C225.625 700.155 228.841 699.258 232.861 697.465V701.269L219.224 706.742C216.502 707.67 214.956 708.134 214.585 708.134C213.162 708.134 211.74 707.206 210.317 705.351C208.957 703.433 207.843 701.176 206.978 698.578C195.535 704.949 186.753 708.134 180.63 708.134C176.857 708.134 174.012 707.051 172.095 704.887C170.177 702.66 169.219 699.351 169.219 694.96C169.219 690.754 169.714 687.631 170.703 685.59C171.755 683.549 173.424 681.941 175.713 680.766C180.352 678.415 185.269 676.684 190.464 675.57C195.659 674.395 201.102 673.406 206.792 672.602L207.256 661.19V658.129C207.256 652.872 205.741 648.728 202.71 645.697C199.741 642.605 196.247 641.059 192.227 641.059C190.309 641.059 188.361 641.615 186.382 642.729C184.465 643.78 183.506 645.295 183.506 647.274C183.506 648.264 183.815 649.594 184.434 651.264ZM206.421 695.146C206.235 693.104 206.421 687.291 206.978 677.704C198.813 677.147 192.257 678.137 187.31 680.673C182.362 683.209 179.888 686.394 179.888 690.229C179.888 693.012 180.63 695.64 182.114 698.114C183.66 700.588 185.763 701.825 188.423 701.825C191.392 701.825 197.391 699.599 206.421 695.146ZM235.366 706.371V703.495C240.005 702.691 243.283 701.299 245.2 699.32C247.118 697.341 248.324 694.311 248.818 690.229C249.128 688.126 249.468 683.301 249.839 675.756C250.21 668.148 250.55 659.459 250.859 649.687C251.169 639.914 251.323 631.132 251.323 623.339C251.323 607.011 250.488 597.702 248.818 595.414C247.767 593.868 245.664 593.095 242.51 593.095C241.768 593.095 241.18 593.126 240.747 593.188C240.314 593.249 239.912 593.311 239.541 593.373C239.17 593.435 238.768 593.497 238.335 593.559V590.683C250.148 585.735 258.467 581.56 263.291 578.158H266.074C264.157 585.456 262.951 598.692 262.456 617.865L261.714 662.489C261.714 683.394 262.178 695.238 263.105 698.021C263.662 699.63 265.518 700.867 268.672 701.732C271.826 702.536 274.64 703.062 277.114 703.31V706.742C264.992 705.876 256.828 705.443 252.622 705.443C246.994 705.443 241.242 705.753 235.366 706.371ZM281.011 706.371V703.495C285.649 702.691 288.927 701.299 290.845 699.32C292.762 697.341 293.968 694.311 294.463 690.229C294.772 688.126 295.112 683.301 295.483 675.756C295.854 668.148 296.195 659.459 296.504 649.687C296.813 639.914 296.968 631.132 296.968 623.339C296.968 607.011 296.133 597.702 294.463 595.414C293.411 593.868 291.309 593.095 288.154 593.095C287.412 593.095 286.825 593.126 286.392 593.188C285.959 593.249 285.557 593.311 285.186 593.373C284.814 593.435 284.412 593.497 283.979 593.559V590.683C295.793 585.735 304.111 581.56 308.936 578.158H311.719C309.801 585.456 308.595 598.692 308.101 617.865L307.358 662.489C307.358 683.394 307.822 695.238 308.75 698.021C309.307 699.63 311.162 700.867 314.316 701.732C317.471 702.536 320.285 703.062 322.759 703.31V706.742C310.636 705.876 302.472 705.443 298.267 705.443C292.638 705.443 286.886 705.753 281.011 706.371ZM322.202 641.244V638.368C325.233 638.739 329.469 638.925 334.912 638.925C341.283 638.925 347.622 638.554 353.931 637.812L353.652 641.244C351.117 641.739 349.292 642.326 348.179 643.007C347.065 643.625 346.509 644.862 346.509 646.718C346.509 649.687 347.839 656.119 350.498 666.015C353.158 675.91 356.312 685.744 359.961 695.517L366.084 684.569C368.743 679.993 371.898 673.622 375.547 665.458C379.196 657.294 381.021 651.697 381.021 648.666C381.021 644.337 376.722 641.646 368.125 640.595L369.424 637.626C376.784 638.368 383.185 638.739 388.628 638.739C392.648 638.739 395.71 638.554 397.812 638.183L397.627 641.244C395.957 641.492 394.442 642.141 393.081 643.192C391.782 644.182 390.545 645.604 389.37 647.46C388.257 649.254 387.02 651.542 385.659 654.325L375.547 675.199C375.423 675.508 373.073 680.085 368.496 688.93C361.878 701.918 356.899 712.247 353.56 719.916C350.282 727.585 347.869 733.956 346.323 739.027C344.839 744.099 343.107 750.81 341.128 759.159H321.367V756.005C325.449 755.077 328.727 753.624 331.201 751.645C333.675 749.727 335.902 747.068 337.881 743.666C339.86 740.326 342.334 735.255 345.303 728.451L352.539 712.309C349.014 699.011 345.767 687.322 342.798 677.24C339.829 667.159 337.015 658.964 334.355 652.655C333.118 649.439 331.851 647.058 330.552 645.512C329.315 643.904 328.14 642.914 327.026 642.543C325.975 642.11 324.367 641.677 322.202 641.244Z" fill="white"/>
</svg>
